<svg xmlns="http://www.w3.org/2000/svg" xmlns:xlink="http://www.w3.org/1999/xlink" fill="none" version="1.1" width="14.65625" height="14" viewBox="0 0 14.65625 14"><defs><clipPath id="master_svg0_6_0656"><rect x="0" y="0" width="14.65625" height="14" rx="0"/></clipPath></defs><g clip-path="url(#master_svg0_6_0656)"><g transform="matrix(1,0,0,-1,0,28.60430908203125)"><g><path d="M7.574218368530273,27.811354541015625Q7.328128368530273,28.276154541015625,6.781248368530274,28.303554541015625Q6.261718368530273,28.276154541015625,5.988278368530273,27.811354541015625L4.238278368530273,24.201954541015624L0.30078036853027346,23.600394541015625Q-0.21875063146972656,23.518364541015625,-0.38281293146972656,23.026174541015624Q-0.5468756314697265,22.506644541015625,-0.16406263146972655,22.123834541015626L2.6796883685302735,19.307424541015624L1.9960983685302733,15.315244541015625Q1.9414083685302734,14.795709541015626,2.3515583685302732,14.467584541015626Q2.7890583685302732,14.166803541015625,3.2812483685302736,14.412896541015625L6.781248368530274,16.272274541015626L10.308568368530274,14.412896541015625Q10.773468368530274,14.166803541015625,11.210968368530274,14.467584541015626Q11.648468368530274,14.795709541015626,11.566368368530274,15.315244541015625L10.910168368530273,19.307424541015624L13.753868368530274,22.123834541015626Q14.109368368530273,22.506644541015625,13.972668368530273,23.026174541015624Q13.781268368530274,23.518364541015625,13.261668368530273,23.600394541015625L9.324218368530273,24.201954541015624L7.574218368530273,27.811354541015625Z" fill="#10B981" fill-opacity="1" style="mix-blend-mode:passthrough"/></g></g></g></svg>