<svg xmlns="http://www.w3.org/2000/svg" xmlns:xlink="http://www.w3.org/1999/xlink" fill="none" version="1.1" width="14" height="14" viewBox="0 0 14 14"><defs><clipPath id="master_svg0_6_0080"><rect x="0" y="0" width="14" height="14" rx="0"/></clipPath></defs><g clip-path="url(#master_svg0_6_0080)"><g transform="matrix(1,0,0,-1,0,26.8515625)"><g><path d="M0.875,25.67578125Q1.25781,25.67578125,1.50391,25.42968125Q1.75,25.18358125,1.75,24.80078125L1.75,15.61328125Q1.77734,15.20312125,2.1875,15.17578125L13.125,15.17578125Q13.5078,15.17578125,13.7539,14.92969125Q14,14.68359125,14,14.30078125Q14,13.91796925,13.7539,13.67187525Q13.5078,13.42578125,13.125,13.42578125L2.1875,13.42578125Q1.25781,13.45312505,0.628906,14.05468725Q0.0273438,14.68359125,0,15.61328125L0,24.80078125Q0,25.18358125,0.246094,25.42968125Q0.492188,25.67578125,0.875,25.67578125ZM3.5,23.05078125Q3.5,23.43358125,3.74609,23.67968125Q3.99219,23.92578125,4.375,23.92578125L9.625,23.92578125Q10.0078,23.92578125,10.2539,23.67968125Q10.5,23.43358125,10.5,23.05078125Q10.5,22.66797125,10.2539,22.421871250000002Q10.0078,22.17578125,9.625,22.17578125L4.375,22.17578125Q3.99219,22.17578125,3.74609,22.421871250000002Q3.5,22.66797125,3.5,23.05078125ZM4.375,21.30078125L7.875,21.30078125L4.375,21.30078125L7.875,21.30078125Q8.25781,21.30078125,8.50391,21.05469125Q8.75,20.80859125,8.75,20.42578125Q8.75,20.04297125,8.50391,19.79687125Q8.25781,19.55078125,7.875,19.55078125L4.375,19.55078125Q3.99219,19.55078125,3.74609,19.79687125Q3.5,20.04297125,3.5,20.42578125Q3.5,20.80859125,3.74609,21.05469125Q3.99219,21.30078125,4.375,21.30078125ZM4.375,18.67578125L11.375,18.67578125L4.375,18.67578125L11.375,18.67578125Q11.7578,18.67578125,12.0039,18.42969125Q12.25,18.18359125,12.25,17.80078125Q12.25,17.41797125,12.0039,17.17187125Q11.7578,16.92578125,11.375,16.92578125L4.375,16.92578125Q3.99219,16.92578125,3.74609,17.17187125Q3.5,17.41797125,3.5,17.80078125Q3.5,18.18359125,3.74609,18.42969125Q3.99219,18.67578125,4.375,18.67578125Z" fill="#10B981" fill-opacity="1" style="mix-blend-mode:passthrough"/></g></g></g></svg>