<svg xmlns="http://www.w3.org/2000/svg" xmlns:xlink="http://www.w3.org/1999/xlink" fill="none" version="1.1" width="12.25" height="14" viewBox="0 0 12.25 14"><defs><clipPath id="master_svg0_6_0110"><rect x="0" y="0" width="12.25" height="14" rx="0"/></clipPath></defs><g clip-path="url(#master_svg0_6_0110)"><g transform="matrix(1,0,0,-1,0,28.6015625)"><g><path d="M3.5,28.30078125Q3.88281,28.30078125,4.12891,28.05468125Q4.375,27.80858125,4.375,27.42578125L4.375,26.55078125L7.875,26.55078125L7.875,27.42578125Q7.875,27.80858125,8.12109,28.05468125Q8.36719,28.30078125,8.75,28.30078125Q9.13281,28.30078125,9.37891,28.05468125Q9.625,27.80858125,9.625,27.42578125L9.625,26.55078125L10.9375,26.55078125Q11.4844,26.52348125,11.8672,26.16798125Q12.2227,25.78518125,12.25,25.23828125L12.25,23.92578125L0,23.92578125L0,25.23828125Q0.0273438,25.78518125,0.382812,26.16798125Q0.765625,26.52348125,1.3125,26.55078125L2.625,26.55078125L2.625,27.42578125Q2.625,27.80858125,2.87109,28.05468125Q3.11719,28.30078125,3.5,28.30078125ZM0,23.05078125L12.25,23.05078125L0,23.05078125L12.25,23.05078125L12.25,15.61328125Q12.2227,15.06640625,11.8672,14.68359325Q11.4844,14.32812505,10.9375,14.30078125L1.3125,14.30078125Q0.765625,14.32812505,0.382812,14.68359325Q0.0273438,15.06640625,0,15.61328125L0,23.05078125ZM2.1875,21.30078125Q1.77734,21.27344125,1.75,20.86328125L1.75,19.11328125Q1.77734,18.70312125,2.1875,18.67578125L10.0625,18.67578125Q10.4727,18.70312125,10.5,19.11328125L10.5,20.86328125Q10.4727,21.27344125,10.0625,21.30078125L2.1875,21.30078125Z" fill="#10B981" fill-opacity="1" style="mix-blend-mode:passthrough"/></g></g></g></svg>