<svg xmlns="http://www.w3.org/2000/svg" xmlns:xlink="http://www.w3.org/1999/xlink" fill="none" version="1.1" width="10.5" height="14" viewBox="0 0 10.5 14"><defs><clipPath id="master_svg0_6_0120"><rect x="0" y="0" width="10.5" height="14" rx="0"/></clipPath></defs><g clip-path="url(#master_svg0_6_0120)"><g transform="matrix(1,0,0,-1,0,28.6015625)"><g><path d="M1.75,28.30078125Q1.01172,28.27348125,0.519531,27.78128125Q0.0273438,27.289081250000002,0,26.55078125L0,16.05078125Q0.0273438,15.31250125,0.519531,14.82031225Q1.01172,14.32812505,1.75,14.30078125L8.75,14.30078125Q9.48828,14.32812505,9.98047,14.82031225Q10.4727,15.31250125,10.5,16.05078125L10.5,23.92578125L7,23.92578125Q6.61719,23.92578125,6.37109,24.171871250000002Q6.125,24.41798125,6.125,24.80078125L6.125,28.30078125L1.75,28.30078125ZM7,28.30078125L7,24.80078125L7,28.30078125L7,24.80078125L10.5,24.80078125L7,28.30078125ZM3.0625,21.30078125L7.4375,21.30078125L3.0625,21.30078125L7.4375,21.30078125Q7.84766,21.27344125,7.875,20.86328125Q7.84766,20.45312125,7.4375,20.42578125L3.0625,20.42578125Q2.65234,20.45312125,2.625,20.86328125Q2.65234,21.27344125,3.0625,21.30078125ZM3.0625,19.55078125L7.4375,19.55078125L3.0625,19.55078125L7.4375,19.55078125Q7.84766,19.52344125,7.875,19.11328125Q7.84766,18.70312125,7.4375,18.67578125L3.0625,18.67578125Q2.65234,18.70312125,2.625,19.11328125Q2.65234,19.52344125,3.0625,19.55078125ZM3.0625,17.80078125L7.4375,17.80078125L3.0625,17.80078125L7.4375,17.80078125Q7.84766,17.77344125,7.875,17.36328125Q7.84766,16.95312125,7.4375,16.92578125L3.0625,16.92578125Q2.65234,16.95312125,2.625,17.36328125Q2.65234,17.77344125,3.0625,17.80078125Z" fill="#10B981" fill-opacity="1" style="mix-blend-mode:passthrough"/></g></g></g></svg>