<svg xmlns="http://www.w3.org/2000/svg" xmlns:xlink="http://www.w3.org/1999/xlink" fill="none" version="1.1" width="14" height="14" viewBox="0 0 14 14"><defs><clipPath id="master_svg0_6_0060"><rect x="0" y="0" width="14" height="14" rx="0"/></clipPath></defs><g clip-path="url(#master_svg0_6_0060)"><g transform="matrix(1,0,0,-1,0,28.6015625)"><g><path d="M7,14.30078125Q8.91406,14.32812505,10.5,15.23046925Q12.0859,16.16016125,13.0703,17.80078125Q14,19.46875125,14,21.30078125Q14,23.13281125,13.0703,24.80078125Q12.0859,26.44138125,10.5,27.37108125Q8.91406,28.27348125,7,28.30078125Q5.08594,28.27348125,3.5,27.37108125Q1.91406,26.44138125,0.929688,24.80078125Q0,23.13281125,0,21.30078125Q0,19.46875125,0.929688,17.80078125Q1.91406,16.16016125,3.5,15.23046925Q5.08594,14.32812505,7,14.30078125ZM4.64844,23.78906125Q4.8125,24.25390125,5.19531,24.527381249999998Q5.57812,24.80078125,6.09766,24.80078125L7.68359,24.80078125Q8.42188,24.77348125,8.91406,24.28125125Q9.37891,23.81640125,9.40625,23.078121250000002Q9.37891,22.09375125,8.53125,21.57422125L7.65625,21.08203125Q7.60156,20.48047125,7,20.42578125Q6.39844,20.48047125,6.34375,21.08203125L6.34375,21.43750125Q6.34375,21.82031125,6.67188,22.01172125L7.875,22.72266125Q8.09375,22.83203125,8.09375,23.078121250000002Q8.06641,23.460941249999998,7.68359,23.48828125L6.09766,23.48828125Q5.93359,23.48828125,5.87891,23.35156125L5.87891,23.296871250000002Q5.60547,22.75000125,5.03125,22.91406125Q4.48438,23.16016125,4.62109,23.734371250000002L4.64844,23.78906125ZM6.125,18.67578125Q6.125,19.05859125,6.37109,19.30469125Q6.61719,19.55078125,7,19.55078125Q7.38281,19.55078125,7.62891,19.30469125Q7.875,19.05859125,7.875,18.67578125Q7.875,18.29297125,7.62891,18.04687125Q7.38281,17.80078125,7,17.80078125Q6.61719,17.80078125,6.37109,18.04687125Q6.125,18.29297125,6.125,18.67578125Z" fill="#10B981" fill-opacity="1" style="mix-blend-mode:passthrough"/></g></g></g></svg>