<svg xmlns="http://www.w3.org/2000/svg" xmlns:xlink="http://www.w3.org/1999/xlink" fill="none" version="1.1" width="15.91106128692627" height="15.973214149475098" viewBox="0 0 15.91106128692627 15.973214149475098"><g transform="matrix(1,0,0,-1,0,31.946428298950195)"><path d="M11.3041,31.383914149475096L9.77877,29.852714149475098L11.3041,31.383914149475096L9.77877,29.852714149475098L13.8255,25.7901741494751L15.3507,27.321414149475096Q15.9111,27.915214149475098,15.9111,28.727714149475098Q15.9111,29.508914149475096,15.3507,30.133914149475096L14.1056,31.383914149475096Q13.5142,31.946414149475096,12.7048,31.946414149475096Q11.9266,31.946414149475096,11.3041,31.383914149475096ZM9.09394,29.165214149475098L1.84102,21.8526741494751L9.09394,29.165214149475098L1.84102,21.8526741494751Q1.34297,21.3839241494751,1.12507,20.6964241494751L0.0355753,16.946428149475096Q-0.0889383,16.508928149475096,0.222346,16.196428149475096Q0.53363,15.883928549475097,0.969427,16.008928549475097L4.70484,17.1026741494751Q5.35853,17.3214241494751,5.85659,17.7901741494751L13.1406,25.1026741494751L9.09394,29.165214149475098Z" fill="#5DBE8A" fill-opacity="1" style="mix-blend-mode:passthrough"/></g></svg>