<svg xmlns="http://www.w3.org/2000/svg" xmlns:xlink="http://www.w3.org/1999/xlink" fill="none" version="1.1" width="10.5" height="14" viewBox="0 0 10.5 14"><defs><clipPath id="master_svg0_6_0100"><rect x="0" y="0" width="10.5" height="14" rx="0"/></clipPath></defs><g clip-path="url(#master_svg0_6_0100)"><g transform="matrix(1,0,0,-1,0,28.601531982421875)"><g><path d="M-0.477294921875,26.550765991210938Q-0.447465421875,27.28906599121094,0.08946607812499996,27.781265991210937Q0.6263950781250001,28.273465991210937,1.431795078125,28.300765991210938L8.113615078125,28.300765991210938Q8.919015078125,28.273465991210937,9.455945078125,27.781265991210937Q9.992905078125,27.28906599121094,10.022705078125,26.550765991210938L10.022705078125,16.050765991210938Q9.992905078125,15.312485991210938,9.455945078125,14.820296991210938Q8.919015078125,14.328109791210938,8.113615078125,14.300765991210938L1.431795078125,14.300765991210938Q0.6263950781250001,14.328109791210938,0.08946607812499996,14.820296991210938Q-0.447465421875,15.312485991210938,-0.477294921875,16.050765991210938L-0.477294921875,26.550765991210938ZM5.727255078125,16.050765991210938Q5.727255078125,16.433575991210937,5.458785078125,16.67967599121094Q5.190315078125,16.925765991210938,4.772705078125,16.925765991210938Q4.355095078125,16.925765991210938,4.086625078125,16.67967599121094Q3.8181550781249998,16.433575991210937,3.8181550781249998,16.050765991210938Q3.8181550781249998,15.667955991210938,4.086625078125,15.421855991210938Q4.355095078125,15.175765991210938,4.772705078125,15.175765991210938Q5.190315078125,15.175765991210938,5.458785078125,15.421855991210938Q5.727255078125,15.667955991210938,5.727255078125,16.050765991210938ZM8.113615078125,26.550765991210938L1.431795078125,26.550765991210938L8.113615078125,26.550765991210938L1.431795078125,26.550765991210938L1.431795078125,17.800765991210938L8.113615078125,17.800765991210938L8.113615078125,26.550765991210938Z" fill="#10B981" fill-opacity="1" style="mix-blend-mode:passthrough"/></g></g></g></svg>