<svg xmlns="http://www.w3.org/2000/svg" xmlns:xlink="http://www.w3.org/1999/xlink" fill="none" version="1.1" width="14" height="14" viewBox="0 0 14 14"><defs><clipPath id="master_svg0_6_0646"><rect x="0" y="0" width="14" height="14" rx="0"/></clipPath></defs><g clip-path="url(#master_svg0_6_0646)"><g transform="matrix(1,0,0,-1,0,28.43749237060547)"><g><path d="M6.564379871826172,28.136746185302734Q6.767699871826172,28.136746185302734,6.941979871826172,28.054646185302737L12.431599871826172,25.867146185302737Q12.925399871826173,25.675746185302735,13.215799871826173,25.265646185302735Q13.535299871826172,24.855446185302732,13.535299871826172,24.308546185302735Q13.564399871826172,22.914056185302734,13.041599871826172,21.027336185302733Q12.518699871826172,19.140626185302736,11.153599871826172,17.363276185302734Q9.817499871826172,15.558586185302735,7.319569871826172,14.382808185302734Q6.564379871826172,14.054684185302735,5.809199871826172,14.382808185302734Q3.311269871826172,15.558586185302735,1.9751698718261719,17.363276185302734Q0.6100298718261719,19.140626185302736,0.08720487182617187,21.027336185302733Q-0.43561702817382814,22.914056185302734,-0.40657141817382814,24.308546185302735Q-0.40657141817382814,24.855446185302732,-0.08706912817382811,25.265646185302735Q0.20338687182617188,25.675746185302735,0.6971598718261718,25.867146185302737L6.186789871826172,28.054646185302737Q6.361059871826172,28.136746185302734,6.564379871826172,28.136746185302734ZM6.564379871826172,26.304646185302737L6.564379871826172,15.968746185302734L6.564379871826172,26.304646185302737L6.564379871826172,15.968746185302734Q8.539489871826172,16.925776185302734,9.672299871826171,18.402336185302733Q10.775999871826173,19.878906185302736,11.240699871826171,21.437496185302734Q11.676399871826172,23.023436185302735,11.676399871826172,24.281246185302734L6.564379871826172,26.304646185302737Z" fill="#10B981" fill-opacity="1" style="mix-blend-mode:passthrough"/></g></g></g></svg>