<svg xmlns="http://www.w3.org/2000/svg" xmlns:xlink="http://www.w3.org/1999/xlink" fill="none" version="1.1" width="10.5" height="10.5" viewBox="0 0 10.5 10.5"><g transform="matrix(1,0,0,-1,0,21)"><path d="M9.51562,15.75Q9.51562,14.581050000000001,8.94141,13.61719Q8.3877,12.65332,7.38281,12.05859Q6.37793,11.484375,5.25,11.484375Q4.12207,11.484375,3.11719,12.05859Q2.1123,12.65332,1.55859,13.61719Q0.984375,14.581050000000001,0.984375,15.75Q0.984375,16.91895,1.55859,17.88281Q2.1123,18.84668,3.11719,19.441409999999998Q4.12207,20.01562,5.25,20.01562Q6.37793,20.01562,7.38281,19.441409999999998Q8.3877,18.84668,8.94141,17.88281Q9.51562,16.91895,9.51562,15.75ZM0,15.75Q0.0205078,14.31445,0.697266,13.125Q1.39453,11.93555,2.625,11.197266Q3.87598,10.5,5.25,10.5Q6.62402,10.5,7.875,11.197266Q9.10547,11.93555,9.80273,13.125Q10.4795,14.31445,10.5,15.75Q10.4795,17.18555,9.80273,18.375Q9.10547,19.56445,7.875,20.30273Q6.62402,21,5.25,21Q3.87598,21,2.625,20.30273Q1.39453,19.56445,0.697266,18.375Q0.0205078,17.18555,0,15.75ZM4.75781,18.53906L4.75781,15.75L4.75781,18.53906L4.75781,15.75Q4.75781,15.4834,4.9834,15.339839999999999L6.95215,14.02734Q7.3418,13.80176,7.62891,14.1709Q7.85449,14.56055,7.48535,14.847660000000001L5.74219,16.0166L5.74219,18.53906Q5.70117,18.99023,5.25,19.03125Q4.79883,18.99023,4.75781,18.53906Z" fill="#6B7280" fill-opacity="1" style="mix-blend-mode:passthrough"/></g></svg>