<svg xmlns="http://www.w3.org/2000/svg" xmlns:xlink="http://www.w3.org/1999/xlink" fill="none" version="1.1" width="7.875" height="10.5" viewBox="0 0 7.875 10.5"><g transform="matrix(1,0,0,-1,0,21)"><path d="M3.1582,20.38477L3.48633,20.8154L3.1582,20.38477L3.48633,20.8154Q3.60938,21,3.83496,21Q4.22461,20.959,4.26562,20.5693L4.26562,20.097659999999998Q4.26562,19.6875,4.57324,19.40039L6.31641,17.73926Q7.05469,17.02148,7.46484,16.05762Q7.875,15.11426,7.875,14.06836Q7.83398,12.55078,6.8291,11.5459Q5.82422,10.5410156,4.30664,10.5L3.9375,10.5Q2.25586,10.5410156,1.14844,11.64844Q0.0410156,12.75586,0,14.4375L0,14.51953Q0.0205078,16.07812,1.10742,17.18555L1.16895,17.24707Q1.3125,17.39062,1.49707,17.39062Q1.92773,17.34961,1.96875,16.91895L1.96875,15.09375Q1.98926,14.540040000000001,2.3584,14.1709Q2.72754,13.80176,3.28125,13.78125Q3.83496,13.80176,4.2041,14.1709Q4.57324,14.540040000000001,4.59375,15.09375L4.59375,15.17578Q4.59375,15.75,4.18359,16.16016L3.4043,16.93945Q2.64551,17.71875,2.625,18.80566Q2.625,19.6875,3.1582,20.38477Z" fill="#6B7280" fill-opacity="1" style="mix-blend-mode:passthrough"/></g></svg>