<svg xmlns="http://www.w3.org/2000/svg" xmlns:xlink="http://www.w3.org/1999/xlink" fill="none" version="1.1" width="28" height="28" viewBox="0 0 28 28"><defs><clipPath id="master_svg0_101_18756"><rect x="6" y="6" width="16" height="16" rx="0"/></clipPath></defs><g><rect x="0" y="0" width="28" height="28" rx="4" fill="#ECFDF5" fill-opacity="1" style="mix-blend-mode:passthrough"/><g clip-path="url(#master_svg0_101_18756)"><g><path d="M19.999997938232422,18.000078046875L19.999997938232422,12.666748046875L10.666667938232422,12.666748046875L10.666667938232422,18.000078046875C10.666667938232422,19.104648046875,11.562100938232422,20.000078046875,12.666667938232422,20.000078046875L17.999997938232422,20.000078046875C19.10456793823242,20.000078046875,19.999997938232422,19.104648046875,19.999997938232422,18.000078046875Z" fill="#5DBE8A" fill-opacity="1" style="mix-blend-mode:passthrough"/><path d="M12.666667938232422,21.000078046875L17.999997938232422,21.000078046875Q19.24263793823242,21.000078046875,20.121317938232423,20.121398046875Q20.999967938232423,19.242718046874998,20.999967938232423,18.000078046875L20.999967938232423,12.666748046875Q20.999967938232423,12.568256646875,20.98076793823242,12.471658046875Q20.96156793823242,12.375059046875,20.92386793823242,12.284065046875Q20.886167938232422,12.193070046875,20.83146793823242,12.111178046875Q20.77676793823242,12.029285046875,20.70706793823242,11.959641046875Q20.637457938232423,11.889997046875,20.55556793823242,11.835278046875Q20.47367793823242,11.780560046875,20.382677938232423,11.742869046875Q20.29168793823242,11.705178046875,20.195087938232422,11.685963046874999Q20.098487938232424,11.666748046875,19.999997938232422,11.666748046875L10.666667938232422,11.666748046875Q10.568176538232422,11.666748046875,10.471577938232421,11.685963046874999Q10.374978938232422,11.705178046875,10.283984938232422,11.742869046875Q10.192989938232422,11.780560046875,10.111097938232422,11.835278046875Q10.029204938232422,11.889997046875,9.959560938232421,11.959641046875Q9.889916938232421,12.029285046875,9.835197938232422,12.111178046875Q9.780479938232421,12.193070046875,9.742788938232422,12.284065046875Q9.705097938232422,12.375059046875,9.685882938232421,12.471658046875Q9.666667938232422,12.568256646875,9.666667938232422,12.666748046875L9.666667938232422,18.000078046875Q9.666667938232422,19.242718046874998,10.545348938232422,20.121398046875Q11.424029938232422,21.000078046875,12.666667938232422,21.000078046875ZM18.707107938232422,18.707188046875Q18.414207938232423,19.000078046875,17.999997938232422,19.000078046875L12.666667938232422,19.000078046875Q12.252457938232421,19.000078046875,11.959557938232422,18.707188046875Q11.666667938232422,18.414288046875,11.666667938232422,18.000078046875L11.666667938232422,13.666748046875L18.999997938232422,13.666748046875L18.999997938232422,18.000078046875Q18.999997938232422,18.414298046875,18.707107938232422,18.707188046875Z" fill-rule="evenodd" fill="#5DBE8A" fill-opacity="1" style="mix-blend-mode:passthrough"/></g><g><path d="M7.333332061767578,11.666748046875L20.66663206176758,11.666748046875Q20.76513206176758,11.666748046875,20.861732061767576,11.685963046874999Q20.958332061767578,11.705178046875,21.04933206176758,11.742869046875Q21.14033206176758,11.780560046875,21.222232061767578,11.835278046875Q21.30413206176758,11.889997046875,21.373732061767576,11.959641046875Q21.443432061767577,12.029285046875,21.498132061767578,12.111178046875Q21.552832061767578,12.193070046875,21.590532061767576,12.284065046875Q21.628232061767577,12.375059046875,21.647432061767578,12.471658046875Q21.66663206176758,12.568256646875,21.66663206176758,12.666748046875Q21.66663206176758,12.765239446875,21.647432061767578,12.861838046875Q21.628232061767577,12.958437046875,21.590532061767576,13.049431046875Q21.552832061767578,13.140426046875,21.498132061767578,13.222318046875Q21.443432061767577,13.304211046875,21.373732061767576,13.373855046875Q21.30413206176758,13.443499046875,21.222232061767578,13.498218046875Q21.14033206176758,13.552936046875,21.04933206176758,13.590627046875Q20.958332061767578,13.628318046875,20.861732061767576,13.647533046875001Q20.76513206176758,13.666748046875,20.66663206176758,13.666748046875L7.333332061767578,13.666748046875Q7.234840661767578,13.666748046875,7.138242061767578,13.647533046875001Q7.041643061767578,13.628318046875,6.950649061767578,13.590627046875Q6.8596540617675785,13.552936046875,6.777762061767578,13.498218046875Q6.695869061767578,13.443499046875,6.626225061767578,13.373855046875Q6.556581061767578,13.304211046875,6.501862061767578,13.222318046875Q6.447144061767578,13.140426046875,6.409453061767578,13.049431046875Q6.371762061767578,12.958437046875,6.352547061767578,12.861838046875Q6.333332061767578,12.765239446875,6.333332061767578,12.666748046875Q6.333332061767578,12.568256646875,6.352547061767578,12.471658046875Q6.371762061767578,12.375059046875,6.409453061767578,12.284065046875Q6.447144061767578,12.193070046875,6.501862061767578,12.111178046875Q6.556581061767578,12.029285046875,6.626225061767578,11.959641046875Q6.695869061767578,11.889997046875,6.777762061767578,11.835278046875Q6.8596540617675785,11.780560046875,6.950649061767578,11.742869046875Q7.041643061767578,11.705178046875,7.138242061767578,11.685963046874999Q7.234840661767578,11.666748046875,7.333332061767578,11.666748046875Z" fill-rule="evenodd" fill="#5DBE8A" fill-opacity="1" style="mix-blend-mode:passthrough"/></g><g><path d="M13,8.666748046875L13,10.000078046875Q13,10.098568046875,12.980785000000001,10.195168046875Q12.96157,10.291768046875,12.923879,10.382768046875Q12.886188,10.473758046875,12.83147,10.555648046875Q12.776751,10.637548046875,12.707107,10.707188046875Q12.637463,10.776828046875,12.55557,10.831548046875Q12.473678,10.886268046875,12.382683,10.923958046875Q12.291689,10.961648046875,12.19509,10.980868046874999Q12.0984914,11.000078046875,12,11.000078046875Q11.9015086,11.000078046875,11.80491,10.980868046874999Q11.708311,10.961648046875,11.617317,10.923958046875Q11.526322,10.886268046875,11.44443,10.831548046875Q11.362537,10.776828046875,11.292893,10.707188046875Q11.223249,10.637548046875,11.16853,10.555648046875Q11.113812,10.473758046875,11.076121,10.382768046875Q11.03843,10.291768046875,11.019214999999999,10.195168046875Q11,10.098568046875,11,10.000078046875L11,8.666748046875Q11,8.568256646875,11.019214999999999,8.471658046875Q11.03843,8.375059046875,11.076121,8.284065046875Q11.113812,8.193070046875,11.16853,8.111178046875Q11.223249,8.029285046875,11.292893,7.959641046875Q11.362537,7.889997046875,11.44443,7.835278046875Q11.526322,7.780560046875,11.617317,7.742869046875Q11.708311,7.705178046875,11.80491,7.685963046875Q11.9015086,7.666748046875,12,7.666748046875Q12.0984914,7.666748046875,12.19509,7.685963046875Q12.291689,7.705178046875,12.382683,7.742869046875Q12.473678,7.780560046875,12.55557,7.835278046875Q12.637463,7.889997046875,12.707107,7.959641046875Q12.776751,8.029285046875,12.83147,8.111178046875Q12.886188,8.193070046875,12.923879,8.284065046875Q12.96157,8.375059046875,12.980785000000001,8.471658046875Q13,8.568256646875,13,8.666748046875Z" fill-rule="evenodd" fill="#5DBE8A" fill-opacity="1" style="mix-blend-mode:passthrough"/></g><g><path d="M14.333332061767578,8Q14.333332061767578,7.9015086,14.352547061767577,7.80491Q14.371762061767578,7.708311,14.409453061767579,7.617317Q14.447144061767577,7.526322,14.501862061767579,7.44443Q14.556581061767577,7.362537,14.626225061767578,7.292893Q14.695869061767578,7.223249,14.777762061767579,7.16853Q14.859654061767579,7.113812,14.950649061767578,7.076121Q15.041643061767578,7.03843,15.138242061767578,7.019215Q15.234840661767578,7,15.333332061767578,7Q15.431823461767578,7,15.528422061767579,7.019215Q15.625021061767578,7.03843,15.716015061767578,7.076121Q15.807010061767578,7.113812,15.888902061767578,7.16853Q15.970795061767578,7.223249,16.04043906176758,7.292893Q16.11008306176758,7.362537,16.164802061767578,7.44443Q16.21952006176758,7.526322,16.257211061767578,7.617317Q16.29490206176758,7.708311,16.31411706176758,7.80491Q16.333332061767578,7.9015086,16.333332061767578,8L16.333332061767578,10Q16.333332061767578,10.09849,16.31411706176758,10.19509Q16.29490206176758,10.29169,16.257211061767578,10.38268Q16.21952006176758,10.47368,16.164802061767578,10.55557Q16.11008306176758,10.63746,16.04043906176758,10.70711Q15.970795061767578,10.77675,15.888902061767578,10.83147Q15.807010061767578,10.88619,15.716015061767578,10.92388Q15.625021061767578,10.96157,15.528422061767579,10.98078Q15.431823461767578,11,15.333332061767578,11Q15.234840661767578,11,15.138242061767578,10.98078Q15.041643061767578,10.96157,14.950649061767578,10.92388Q14.859654061767579,10.88619,14.777762061767579,10.83147Q14.695869061767578,10.77675,14.626225061767578,10.70711Q14.556581061767577,10.63746,14.501862061767579,10.55557Q14.447144061767577,10.47368,14.409453061767579,10.38268Q14.371762061767578,10.29169,14.352547061767577,10.19509Q14.333332061767578,10.09849,14.333332061767578,10L14.333332061767578,8Z" fill-rule="evenodd" fill="#5DBE8A" fill-opacity="1" style="mix-blend-mode:passthrough"/></g><g><path d="M19.666667938232422,8.666748046875L19.666667938232422,10.000078046875Q19.666667938232422,10.098568046875,19.647452938232423,10.195168046875Q19.628237938232424,10.291768046875,19.59054693823242,10.382768046875Q19.552855938232423,10.473758046875,19.49813793823242,10.555648046875Q19.443418938232423,10.637548046875,19.373774938232422,10.707188046875Q19.304130938232422,10.776828046875,19.22223793823242,10.831548046875Q19.14034593823242,10.886268046875,19.049350938232422,10.923958046875Q18.958356938232424,10.961648046875,18.861757938232422,10.980868046874999Q18.765159338232422,11.000078046875,18.666667938232422,11.000078046875Q18.56817653823242,11.000078046875,18.47157793823242,10.980868046874999Q18.37497893823242,10.961648046875,18.28398493823242,10.923958046875Q18.192989938232422,10.886268046875,18.111097938232422,10.831548046875Q18.02920493823242,10.776828046875,17.95956093823242,10.707188046875Q17.88991693823242,10.637548046875,17.835197938232422,10.555648046875Q17.78047993823242,10.473758046875,17.742788938232422,10.382768046875Q17.70509793823242,10.291768046875,17.68588293823242,10.195168046875Q17.666667938232422,10.098568046875,17.666667938232422,10.000078046875L17.666667938232422,8.666748046875Q17.666667938232422,8.568256646875,17.68588293823242,8.471658046875Q17.70509793823242,8.375059046875,17.742788938232422,8.284065046875Q17.78047993823242,8.193070046875,17.835197938232422,8.111178046875Q17.88991693823242,8.029285046875,17.95956093823242,7.959641046875Q18.02920493823242,7.889997046875,18.111097938232422,7.835278046875Q18.192989938232422,7.780560046875,18.28398493823242,7.742869046875Q18.37497893823242,7.705178046875,18.47157793823242,7.685963046875Q18.56817653823242,7.666748046875,18.666667938232422,7.666748046875Q18.765159338232422,7.666748046875,18.861757938232422,7.685963046875Q18.958356938232424,7.705178046875,19.049350938232422,7.742869046875Q19.14034593823242,7.780560046875,19.22223793823242,7.835278046875Q19.304130938232422,7.889997046875,19.373774938232422,7.959641046875Q19.443418938232423,8.029285046875,19.49813793823242,8.111178046875Q19.552855938232423,8.193070046875,19.59054693823242,8.284065046875Q19.628237938232424,8.375059046875,19.647452938232423,8.471658046875Q19.666667938232422,8.568256646875,19.666667938232422,8.666748046875Z" fill-rule="evenodd" fill="#5DBE8A" fill-opacity="1" style="mix-blend-mode:passthrough"/></g></g></g></svg>