<svg xmlns="http://www.w3.org/2000/svg" xmlns:xlink="http://www.w3.org/1999/xlink" fill="none" version="1.1" width="28" height="28" viewBox="0 0 28 28"><defs><clipPath id="master_svg0_101_18791"><rect x="7.875" y="7" width="12.25" height="14" rx="0"/></clipPath></defs><g><rect x="0" y="0" width="28" height="28" rx="4" fill="#ECFDF5" fill-opacity="1" style="mix-blend-mode:passthrough"/><g clip-path="url(#master_svg0_101_18791)"><g transform="matrix(1,0,0,-1,0,40.8515625)"><g><path d="M17.5,27.42578125Q18.6211,27.45312125,19.3594,28.19140125Q20.0977,28.929691249999998,20.125,30.05078125Q20.0977,31.17188125,19.3594,31.91018125Q18.6211,32.64848125,17.5,32.67578125Q16.378909999999998,32.64848125,15.64062,31.91018125Q14.902339999999999,31.17188125,14.875,30.05078125Q14.875,29.88672125,14.902339999999999,29.72266125L12.33203,28.43750125Q11.59375,29.148441249999998,10.5,29.17578125Q9.37891,29.148441249999998,8.640625,28.41016125Q7.9023438,27.67187125,7.875,26.55078125Q7.9023438,25.42969125,8.640625,24.69140125Q9.37891,23.95312125,10.5,23.92578125Q11.59375,23.95312125,12.33203,24.66406125L14.902339999999999,23.37890125Q14.875,23.21484125,14.875,23.05078125Q14.902339999999999,21.92969125,15.64062,21.19140625Q16.378909999999998,20.45312505,17.5,20.42578125Q18.6211,20.45312505,19.3594,21.19140625Q20.0977,21.92969125,20.125,23.05078125Q20.0977,24.17187125,19.3594,24.91016125Q18.6211,25.64844125,17.5,25.67578125Q16.40625,25.64844125,15.66797,24.93750125L13.097660000000001,26.22266125Q13.125,26.38672125,13.125,26.55078125Q13.125,26.71484125,13.097660000000001,26.87890125L15.66797,28.16406125Q16.40625,27.45312125,17.5,27.42578125Z" fill="#5DBE8A" fill-opacity="1" style="mix-blend-mode:passthrough"/></g></g></g></g></svg>