<svg xmlns="http://www.w3.org/2000/svg" xmlns:xlink="http://www.w3.org/1999/xlink" fill="none" version="1.1" width="10.5" height="14" viewBox="0 0 10.5 14"><g transform="matrix(1,0,0,-1,0,28)"><path d="M5.25,14Q3.00781,14.0546875,1.53125,15.53125Q0.0546875,17.00781,0,19.25Q0.0546875,20.53516,0.957031,22.25781Q1.85938,23.98047,2.92578,25.4844Q3.99219,26.988300000000002,4.56641,27.6719Q4.8125,28,5.22266,28L5.27734,28Q5.6875,28,5.93359,27.6719Q6.50781,26.988300000000002,7.57422,25.4844Q8.64062,23.98047,9.54297,22.25781Q10.4453,20.53516,10.5,19.25Q10.4453,17.00781,8.96875,15.53125Q7.49219,14.0546875,5.25,14ZM2.625,18.8125Q2.59766,19.22266,2.1875,19.25Q1.77734,19.22266,1.75,18.8125Q1.77734,17.5,2.65234,16.65234Q3.5,15.77734,4.8125,15.75Q5.22266,15.77734,5.25,16.1875Q5.22266,16.59766,4.8125,16.625Q3.88281,16.65234,3.25391,17.25391Q2.65234,17.88281,2.625,18.8125Z" fill="#2563EB" fill-opacity="1" style="mix-blend-mode:passthrough"/></g></svg>