<svg xmlns="http://www.w3.org/2000/svg" xmlns:xlink="http://www.w3.org/1999/xlink" fill="none" version="1.1" width="15.635537147521973" height="15.757689476013184" viewBox="0 0 15.635537147521973 15.757689476013184"><g transform="matrix(1,0,0,-1,0,31.515378952026367)"><path d="M11.0532,31.480789476013186Q11.2669,31.357689476013185,11.3279,31.111589476013183L11.9384,27.789389476013184L15.2349,27.174089476013183Q15.4791,27.112589476013184,15.6012,26.897289476013185Q15.6928,26.651189476013183,15.5402,26.40508947601318L13.6477,23.636529476013184L15.5402,20.867979476013183Q15.6928,20.621889476013184,15.6012,20.375789476013182Q15.4791,20.160459476013184,15.2349,20.098939476013182L11.9384,19.483699476013182L11.3279,16.161437476013184Q11.2669,15.915343476013184,11.0532,15.792296376013184Q10.809,15.700011276013184,10.5649,15.853819876013183L7.81777,17.761049476013184L5.07068,15.853819876013183Q4.82649,15.700011276013184,4.61283,15.792296376013184Q4.36864,15.915343476013184,4.30759,16.161437476013184L3.69713,19.483699476013182L0.400618,20.098939476013182Q0.156432,20.160459476013184,0.0343387,20.375789476013182Q-0.0572311,20.621889476013184,0.0953852,20.867979476013183L1.98783,23.636529476013184L0.0953852,26.40508947601318Q-0.0572311,26.651189476013183,0.0343387,26.866489476013186Q0.156432,27.112589476013184,0.400618,27.174089476013183L3.69713,27.789389476013184L4.30759,31.111589476013183Q4.36864,31.357689476013185,4.61283,31.480789476013186Q4.82649,31.573089476013184,5.07068,31.419289476013184L7.81777,29.511989476013184L10.5649,31.419289476013184Q10.809,31.573089476013184,11.0532,31.480789476013186ZM4.88754,23.636529476013184Q4.88754,24.43633947601318,5.28434,25.113099476013183Q5.68114,25.789889476013183,6.35265,26.189789476013182Q7.05469,26.589689476013184,7.81777,26.589689476013184Q8.58085,26.589689476013184,9.28288,26.189789476013182Q9.9544,25.789889476013183,10.3512,25.113099476013183Q10.748,24.43633947601318,10.748,23.636529476013184Q10.748,22.836729476013183,10.3512,22.159969476013185Q9.9544,21.483209476013183,9.28288,21.083309476013184Q8.58085,20.683409476013182,7.81777,20.683409476013182Q7.05469,20.683409476013182,6.35265,21.083309476013184Q5.68114,21.483209476013183,5.28434,22.159969476013185Q4.88754,22.836729476013183,4.88754,23.636529476013184ZM11.7247,23.636529476013184Q11.7247,24.713199476013184,11.2059,25.605289476013184Q10.687,26.497389476013183,9.77126,27.051089476013182Q8.85556,27.573989476013182,7.81777,27.573989476013182Q6.77998,27.573989476013182,5.86428,27.051089476013182Q4.94858,26.497389476013183,4.42969,25.605289476013184Q3.91079,24.713199476013184,3.91079,23.636529476013184Q3.91079,22.559879476013183,4.42969,21.667779476013184Q4.94858,20.775699476013184,5.86428,20.221979476013182Q6.77998,19.699039476013184,7.81777,19.699039476013184Q8.85556,19.699039476013184,9.77126,20.221979476013182Q10.687,20.775699476013184,11.2059,21.667779476013184Q11.7247,22.559879476013183,11.7247,23.636529476013184Z" fill="#6B7280" fill-opacity="1" style="mix-blend-mode:passthrough"/></g></svg>