<svg xmlns="http://www.w3.org/2000/svg" xmlns:xlink="http://www.w3.org/1999/xlink" fill="none" version="1.1" width="12.250000953674316" height="14" viewBox="0 0 12.250000953674316 14"><g transform="matrix(1,0,0,-1,0,28)"><path d="M9.42308,26.6875Q9.39363,27.425800000000002,8.71635,27.835900000000002Q8.00962,28.164099999999998,7.30289,27.835900000000002Q6.6256,27.425800000000002,6.59615,26.6875Q6.6256,25.949199999999998,7.30289,25.539099999999998Q8.00962,25.210900000000002,8.71635,25.539099999999998Q9.39363,25.949199999999998,9.42308,26.6875ZM3.71034,23.1875Q4.15204,23.625,4.79988,23.625Q4.88822,23.625,4.97656,23.625L4.0637,21.05469Q3.85757,20.45312,4.0637,19.90625Q4.26983,19.35938,4.82933,19.00391L7.39123,17.55469L6.6256,15.12109Q6.53726,14.765625,6.71394,14.4375Q6.89063,14.136719,7.27344,14.0273438Q7.65625,13.9453125,8.00962,14.109375Q8.33353,14.273437,8.45132,14.628906L9.30529,17.39062Q9.42308,17.80078,9.2464,18.21094Q9.09916,18.62109,8.6869,18.83984L7.00841,19.82422L7.92127,22.066409999999998L8.06851,21.73828Q8.42188,21,9.09916,20.5625Q9.80589,20.125,10.6893,20.125L11.3077,20.125Q11.72,20.125,11.985,20.37109Q12.25,20.61719,12.25,21Q12.25,21.38281,11.985,21.62891Q11.72,21.875,11.3077,21.875L10.6893,21.875Q10.0709,21.90234,9.80589,22.42188L9.62921,22.83203Q8.92248,24.3086,7.24399,24.8281L5.83053,25.238300000000002Q5.32993,25.375,4.79988,25.375Q3.38642,25.3477,2.38522,24.4453L1.67849,23.816409999999998Q1.41346,23.54297,1.41346,23.1875Q1.41346,22.83203,1.67849,22.558590000000002Q1.97296,22.3125,2.35577,22.3125Q2.73858,22.3125,3.03305,22.558590000000002L3.71034,23.1875ZM2.67969,18.375L0.942308,18.375L2.67969,18.375L0.942308,18.375Q0.530048,18.375,0.265024,18.12891Q0,17.88281,0,17.5Q0,17.11719,0.265024,16.87109Q0.530048,16.625,0.942308,16.625L3.00361,16.625Q3.88702,16.65234,4.29928,17.39062L4.6232,18.10156L4.35817,18.26562Q3.5631,18.73047,3.23918,19.49609L2.67969,18.375Z" fill="#5DBE8A" fill-opacity="1" style="mix-blend-mode:passthrough"/></g></svg>