<svg xmlns="http://www.w3.org/2000/svg" xmlns:xlink="http://www.w3.org/1999/xlink" fill="none" version="1.1" width="19.6299991607666" height="15.753844261169434" viewBox="0 0 19.6299991607666 15.753844261169434"><g transform="matrix(1,0,0,-1,0,31.507688522338867)"><path d="M9.0196,31.473044261169434Q9.26493,31.350044261169433,9.32626,31.10394426116943L9.75559,28.489244261169432L12.3622,28.058544261169434Q12.6075,27.997044261169435,12.7302,27.750944261169433Q12.8222,27.50484426116943,12.6688,27.289444261169436L11.5035,25.597594261169434Q11.3809,25.597594261169434,11.2889,25.597594261169434Q10.2156,25.597594261169434,9.32626,25.074644261169432L9.32626,25.105404261169433Q9.2956,26.366644261169434,8.46762,27.197244261169434Q7.63964,28.02774426116943,6.38234,28.058544261169434Q5.12504,28.02774426116943,4.29706,27.197244261169434Q3.46908,26.366644261169434,3.43841,25.105404261169433Q3.46908,23.844174261169435,4.29706,23.013614261169433Q5.12504,22.183044261169435,6.38234,22.152284261169434Q6.75033,22.152284261169434,7.08765,22.244564261169433Q6.25967,21.813904261169434,5.67702,21.044864261169433Q5.12504,20.306574261169434,4.97171,19.322204261169432L4.20506,18.799254261169434Q3.9904,18.645444261169434,3.74507,18.737734261169432Q3.49974,18.860774261169432,3.43841,19.137634261169435L3.00909,21.721614261169435L0.40249,22.152284261169434Q0.157163,22.213804261169432,0.0344991,22.459894261169435Q-0.0574985,22.705994261169433,0.0958309,22.921324261169435L1.62913,25.105404261169433L0.0958309,27.289444261169436Q-0.0574985,27.50484426116943,0.0344991,27.750944261169433Q0.157163,27.997044261169435,0.40249,28.058544261169434L3.00909,28.489244261169432L3.43841,31.10394426116943Q3.49974,31.350044261169433,3.74507,31.473044261169434Q3.9904,31.565344261169436,4.20506,31.411544261169432L6.38234,29.873444261169432L8.55962,31.411544261169432Q8.77428,31.565344261169436,9.0196,31.473044261169434ZM4.41972,25.105404261169433Q4.45039,26.212844261169433,5.40103,26.797344261169435Q6.38234,27.351044261169434,7.36365,26.797344261169435Q8.31429,26.212844261169433,8.34495,25.105404261169433Q8.31429,23.997984261169435,7.36365,23.413514261169432Q6.38234,22.859804261169433,5.40103,23.413514261169432Q4.45039,23.997984261169435,4.41972,25.105404261169433ZM19.63,18.214784261169434Q19.5993,17.168884261169435,18.894,16.492125261169434Q18.2194,15.784605961169433,17.1767,15.753844261169434L8.83561,15.753844261169434Q7.57831,15.784605961169433,6.75033,16.615172261169434Q5.92235,17.445734261169434,5.89168,18.706964261169432Q5.92235,19.845154261169434,6.597,20.614194261169434Q7.27165,21.414004261169435,8.34495,21.629334261169433L8.34495,21.660094261169434Q8.37562,22.921324261169435,9.2036,23.751894261169433Q10.0316,24.58245426116943,11.2889,24.613224261169435Q12.0862,24.613224261169435,12.7608,24.213314261169433Q13.4048,23.844174261169435,13.8035,23.198184261169434Q14.4168,23.628844261169434,15.2141,23.628844261169434Q16.2568,23.598084261169433,16.9621,22.921324261169435Q17.6367,22.213804261169432,17.6674,21.167904261169433Q17.6674,20.891054261169433,17.6061,20.644954261169435Q18.4954,20.460384261169434,19.0473,19.814394261169433Q19.5993,19.137634261169435,19.63,18.214784261169434Z" fill="#6B7280" fill-opacity="1" style="mix-blend-mode:passthrough"/></g></svg>