<svg xmlns="http://www.w3.org/2000/svg" xmlns:xlink="http://www.w3.org/1999/xlink" fill="none" version="1.1" width="28" height="28" viewBox="0 0 28 28"><defs><clipPath id="master_svg0_101_18866"><rect x="7.875" y="7" width="12.25" height="14" rx="0"/></clipPath></defs><g><rect x="0" y="0" width="28" height="28" rx="4" fill="#ECFDF5" fill-opacity="1" style="mix-blend-mode:passthrough"/><g clip-path="url(#master_svg0_101_18866)"><g transform="matrix(1,0,0,-1,0,40.8515625)"><g><path d="M9.26953,31.937481249999998L7.875,29.17578125L9.26953,31.937481249999998L7.875,29.17578125L13.5625,29.17578125L13.5625,32.67578125L10.44531,32.67578125Q9.65234,32.64848125,9.26953,31.937481249999998ZM14.4375,29.17578125L20.125,29.17578125L14.4375,29.17578125L20.125,29.17578125L18.7305,31.937481249999998Q18.3477,32.64848125,17.55469,32.67578125L14.4375,32.67578125L14.4375,29.17578125ZM20.125,28.30078125L7.875,28.30078125L20.125,28.30078125L7.875,28.30078125L7.875,22.17578125Q7.9023438,21.43750125,8.394531,20.94531225Q8.88672,20.45312505,9.625,20.42578125L18.375,20.42578125Q19.113300000000002,20.45312505,19.6055,20.94531225Q20.0977,21.43750125,20.125,22.17578125L20.125,28.30078125Z" fill="#5DBE8A" fill-opacity="1" style="mix-blend-mode:passthrough"/></g></g></g></g></svg>