<svg xmlns="http://www.w3.org/2000/svg" xmlns:xlink="http://www.w3.org/1999/xlink" fill="none" version="1.1" width="12.25" height="12.25" viewBox="0 0 12.25 12.25"><g transform="matrix(1,0,0,-1,0,24.5)"><path d="M1.39453,23.761699999999998L0,21L1.39453,23.761699999999998L0,21L5.6875,21L5.6875,24.5L2.57031,24.5Q1.77734,24.4727,1.39453,23.761699999999998ZM6.5625,21L12.25,21L6.5625,21L12.25,21L10.8555,23.761699999999998Q10.4727,24.4727,9.67969,24.5L6.5625,24.5L6.5625,21ZM12.25,20.125L0,20.125L12.25,20.125L0,20.125L0,14Q0.0273438,13.26172,0.519531,12.769531Q1.01172,12.2773438,1.75,12.25L10.5,12.25Q11.2383,12.2773438,11.7305,12.769531Q12.2227,13.26172,12.25,14L12.25,20.125Z" fill="#5DBE8A" fill-opacity="1" style="mix-blend-mode:passthrough"/></g></svg>