<svg xmlns="http://www.w3.org/2000/svg" xmlns:xlink="http://www.w3.org/1999/xlink" fill="none" version="1.1" width="12.25" height="14" viewBox="0 0 12.25 14"><defs><clipPath id="master_svg0_42_23497"><rect x="0" y="0" width="12.25" height="14" rx="0"/></clipPath></defs><g clip-path="url(#master_svg0_42_23497)"><g transform="matrix(1,0,0,-1,0,26.8515625)"><g><path d="M9.625,20.42578125Q10.7461,20.45312125,11.4844,21.19140125Q12.2227,21.929691249999998,12.25,23.05078125Q12.2227,24.17188125,11.4844,24.91018125Q10.7461,25.64848125,9.625,25.67578125Q8.50391,25.64848125,7.76562,24.91018125Q7.02734,24.17188125,7,23.05078125Q7,22.88672125,7.02734,22.72266125L4.45703,21.43750125Q3.71875,22.148441249999998,2.625,22.17578125Q1.50391,22.148441249999998,0.765625,21.41016125Q0.0273438,20.67187125,0,19.55078125Q0.0273438,18.42969125,0.765625,17.69140125Q1.50391,16.95312125,2.625,16.92578125Q3.71875,16.95312125,4.45703,17.66406125L7.02734,16.37890125Q7,16.21484125,7,16.05078125Q7.02734,14.92969125,7.76562,14.19140625Q8.50391,13.45312505,9.625,13.42578125Q10.7461,13.45312505,11.4844,14.19140625Q12.2227,14.92969125,12.25,16.05078125Q12.2227,17.17187125,11.4844,17.91016125Q10.7461,18.64844125,9.625,18.67578125Q8.53125,18.64844125,7.79297,17.93750125L5.22266,19.22266125Q5.25,19.38672125,5.25,19.55078125Q5.25,19.71484125,5.22266,19.87890125L7.79297,21.16406125Q8.53125,20.45312125,9.625,20.42578125Z" fill="#5DBE8A" fill-opacity="1" style="mix-blend-mode:passthrough"/></g></g></g></svg>