<svg xmlns="http://www.w3.org/2000/svg" xmlns:xlink="http://www.w3.org/1999/xlink" fill="none" version="1.1" width="10.828125" height="15.75" viewBox="0 0 10.828125 15.75"><g transform="matrix(1,0,0,-1,0,31.5)"><path d="M1.96875,26.085900000000002Q1.96875,27.0088,2.43018,27.8086Q2.8916,28.6084,3.69141,29.0698Q4.49121,29.5312,5.41406,29.5312Q6.33691,29.5312,7.13672,29.0698Q7.93652,28.6084,8.39795,27.8086Q8.85938,27.0088,8.85938,26.085900000000002Q8.85938,25.16309,8.39795,24.36328Q7.93652,23.56348,7.13672,23.10205Q6.33691,22.64062,5.41406,22.64062Q4.49121,22.64062,3.69141,23.10205Q2.8916,23.56348,2.43018,24.36328Q1.96875,25.16309,1.96875,26.085900000000002ZM6.39844,20.76416Q8.33643,21.1333,9.56689,22.60986Q10.7974,24.05566,10.8281,26.085900000000002Q10.7666,28.3931,9.22852,29.900399999999998Q7.72119,31.438499999999998,5.41406,31.5Q3.10693,31.438499999999998,1.59961,29.900399999999998Q0.0615234,28.3931,0,26.085900000000002Q0.0307617,24.05566,1.26123,22.60986Q2.4917,21.1333,4.42969,20.76416L4.42969,19.6875L3.44531,19.6875Q3.01465,19.6875,2.73779,19.41064Q2.46094,19.13379,2.46094,18.70312Q2.46094,18.27246,2.73779,17.99561Q3.01465,17.71875,3.44531,17.71875L4.42969,17.71875L4.42969,16.734375Q4.42969,16.303711,4.70654,16.026855Q4.9834,15.75,5.41406,15.75Q5.84473,15.75,6.12158,16.026855Q6.39844,16.303711,6.39844,16.734375L6.39844,17.71875L7.38281,17.71875Q7.81348,17.71875,8.09033,17.99561Q8.36719,18.27246,8.36719,18.70312Q8.36719,19.13379,8.09033,19.41064Q7.81348,19.6875,7.38281,19.6875L6.39844,19.6875L6.39844,20.76416Z" fill="#4B5563" fill-opacity="1" style="mix-blend-mode:passthrough"/></g></svg>