<svg xmlns="http://www.w3.org/2000/svg" xmlns:xlink="http://www.w3.org/1999/xlink" fill="none" version="1.1" width="17.5" height="17.5" viewBox="0 0 17.5 17.5"><g transform="matrix(1,0,0,-1,0,35)"><path d="M4.375,28.9844Q4.375,30.1807,4.95605,31.1719Q5.53711,32.1631,6.5625,32.7783Q7.58789,33.3594,8.75,33.3594Q9.91211,33.3594,10.9375,32.7783Q11.9629,32.1631,12.5439,31.1719Q13.125,30.1807,13.125,28.9844Q13.125,27.7881,12.5439,26.79688Q11.9629,25.80566,10.9375,25.19043Q9.91211,24.60938,8.75,24.60938Q7.58789,24.60938,6.5625,25.19043Q5.53711,25.80566,4.95605,26.79688Q4.375,27.7881,4.375,28.9844ZM13.3984,32.8125Q12.5439,33.837900000000005,11.3477,34.4189Q10.1514,35,8.75,35Q7.34863,35,6.15234,34.4189Q4.95605,33.837900000000005,4.10156,32.8125L2.1875,32.8125Q1.26465,32.7783,0.649414,32.1631Q0.0341797,31.5479,0,30.625L0,19.6875Q0.0341797,18.76465,0.649414,18.149414Q1.26465,17.5341797,2.1875,17.5L15.3125,17.5Q16.2354,17.5341797,16.8506,18.149414Q17.4658,18.76465,17.5,19.6875L17.5,30.625Q17.4658,31.5479,16.8506,32.1631Q16.2354,32.7783,15.3125,32.8125L13.3984,32.8125ZM10.1172,27.34375Q10.1172,27.8906,9.74121,28.2666L10.9033,30.9668Q11.04,31.4453,10.5957,31.6846Q10.1172,31.8213,9.87793,31.377000000000002L8.75,28.710900000000002Q8.16895,28.6768,7.79297,28.300800000000002Q7.38281,27.924799999999998,7.38281,27.34375Q7.38281,26.762700000000002,7.79297,26.38672Q8.16895,25.97656,8.75,25.97656Q9.33105,25.97656,9.70703,26.38672Q10.1172,26.762700000000002,10.1172,27.34375Z" fill="#4B5563" fill-opacity="1" style="mix-blend-mode:passthrough"/></g></svg>