<svg xmlns="http://www.w3.org/2000/svg" xmlns:xlink="http://www.w3.org/1999/xlink" fill="none" version="1.1" width="17.368331909179688" height="17.5040225982666" viewBox="0 0 17.368331909179688 17.5040225982666"><g transform="matrix(1,0,0,-1,0,35.0080451965332)"><path d="M11.7724,34.802922598266605Q11.5011,34.4953225982666,11.1958,33.9143225982666Q10.8906,33.3332225982666,10.8567,32.547122598266604Q10.8567,31.5559225982666,11.2298,30.974822598266602Q11.5689,30.393822598266603,12.2133,29.812722598266603Q12.7898,29.163322598266603,13.3664,28.821522598266604Q13.9429,28.4455225982666,14.9265,28.4455225982666Q15.7065,28.4797225982666,16.2831,28.787322598266602Q16.8596,29.0949225982666,17.1648,29.3684225982666Q17.3683,29.5393225982666,17.3683,29.812722598266603Q17.3683,30.086122598266602,17.1648,30.2570225982666Q16.8596,30.5305225982666,16.2152,30.8381225982666Q15.5709,31.1457225982666,14.6552,31.1799225982666Q13.8751,31.1457225982666,13.5699,31.043222598266603Q13.2986,30.9065225982666,13.2986,30.9065225982666Q13.3325,30.8723225982666,13.4342,31.1799225982666Q13.5699,31.453322598266602,13.5699,32.2736225982666Q13.536,33.196522598266604,13.2307,33.8459225982666Q12.9255,34.4953225982666,12.6542,34.802922598266605Q12.4846,35.00802259826661,12.2133,35.00802259826661Q11.942,35.00802259826661,11.7724,34.802922598266605ZM8.3131,30.359622598266604Q6.17647,30.2912225982666,4.8538,28.7190225982666L6.88868,26.634022598266604Q7.22783,26.258042598266602,6.88868,25.882072598266603Q6.51562,25.540272598266604,6.14256,25.882072598266603L4.27725,27.7619225982666L0.0718194,18.6701525982666Q-0.131669,18.157457598266603,0.241393,17.747301598266603Q0.64837,17.3713245982666,1.15709,17.576403098266603L5.73558,19.7297225982666L3.97201,21.5070625982666Q3.63287,21.883042598266602,3.97201,22.2590225982666Q4.34508,22.600822598266603,4.71814,22.2590225982666L6.78694,20.2082425982666L10.1784,21.7805025982666Q11.3654,22.3615625982666,12.0437,23.4553125982666Q12.7559,24.5490625982666,12.7559,25.882072598266603Q12.722,27.7619225982666,11.4672,29.060822598266604Q10.1784,30.325422598266602,8.3131,30.359622598266604Z" fill="#4B5563" fill-opacity="1" style="mix-blend-mode:passthrough"/></g></svg>