<svg xmlns="http://www.w3.org/2000/svg" xmlns:xlink="http://www.w3.org/1999/xlink" fill="none" version="1.1" width="21.717985153198242" height="17.5" viewBox="0 0 21.717985153198242 17.5"><g transform="matrix(1,0,0,-1,0,35)"><path d="M13.0533,33.9062L17.4079,33.9062L13.0533,33.9062L17.4079,33.9062Q17.8842,33.9062,18.1903,33.598600000000005Q18.4965,33.291,18.4965,32.8125Q18.4965,32.334,18.1903,32.0264Q17.8842,31.7188,17.4079,31.7188L13.5296,31.7188Q13.2234,30.351599999999998,11.9647,29.7705L11.9647,19.6875L17.4079,19.6875Q17.8842,19.6875,18.1903,19.37988Q18.4965,19.07227,18.4965,18.59375Q18.4965,18.115234,18.1903,17.807617Q17.8842,17.5,17.4079,17.5L10.876,17.5L4.34412,17.5Q3.86784,17.5,3.56166,17.807617Q3.25547,18.115234,3.25547,18.59375Q3.25547,19.07227,3.56166,19.37988Q3.86784,19.6875,4.34412,19.6875L9.78736,19.6875L9.78736,29.7705Q8.52861,30.351599999999998,8.22243,31.7188L4.34412,31.7188Q3.86784,31.7188,3.56166,32.0264Q3.25547,32.334,3.25547,32.8125Q3.25547,33.291,3.56166,33.598600000000005Q3.86784,33.9062,4.34412,33.9062L8.69871,33.9062Q9.48117,34.9658,10.876,35Q12.2708,34.9658,13.0533,33.9062ZM14.9584,24.0625L19.8914,24.0625L14.9584,24.0625L19.8914,24.0625L17.4079,28.300800000000002L14.9584,24.0625ZM17.4079,20.78125Q15.7749,20.81543,14.5842,21.56738Q13.4275,22.31934,13.1213,23.48145Q13.0193,24.0625,13.3595,24.57519L16.5914,30.1465Q16.8636,30.625,17.4079,30.625Q17.9522,30.5908,18.2244,30.1465L21.4563,24.57519Q21.7965,24.0625,21.6944,23.48145Q21.3883,22.31934,20.2316,21.56738Q19.0409,20.81543,17.4079,20.78125ZM4.3101,28.300800000000002L1.82662,24.0625L4.3101,28.300800000000002L1.82662,24.0625L6.75956,24.0625L4.3101,28.300800000000002ZM0.0235525,23.48145Q-0.0785082,24.0625,0.261694,24.57519L3.49361,30.1465Q3.76578,30.625,4.3101,30.625Q4.85442,30.5908,5.12659,30.1465L8.35851,24.57519Q8.69871,24.0625,8.59665,23.48145Q8.29047,22.31934,7.09976,21.56738Q5.94307,20.81543,4.3101,20.78125Q2.67713,20.81543,1.48642,21.56738Q0.329734,22.31934,0.0235525,23.48145Z" fill="#4B5563" fill-opacity="1" style="mix-blend-mode:passthrough"/></g></svg>