<svg xmlns="http://www.w3.org/2000/svg" xmlns:xlink="http://www.w3.org/1999/xlink" fill="none" version="1.1" width="21.875" height="15.3125" viewBox="0 0 21.875 15.3125"><g transform="matrix(1,0,0,-1,0,30.625)"><path d="M3.28125,29.5313Q3.28125,30.0098,3.58887,30.3174Q3.89648,30.625,4.375,30.625L5.46875,30.625Q5.94727,30.625,6.25488,30.3174Q6.5625,30.0098,6.5625,29.5313L6.5625,24.0625L6.5625,21.875L6.5625,16.40625Q6.5625,15.927734,6.25488,15.620117Q5.94727,15.3125,5.46875,15.3125L4.375,15.3125Q3.89648,15.3125,3.58887,15.620117Q3.28125,15.927734,3.28125,16.40625L3.28125,18.59375L2.1875,18.59375Q1.70898,18.59375,1.40137,18.90137Q1.09375,19.20898,1.09375,19.6875L1.09375,21.875Q0.615234,21.875,0.307617,22.18262Q0,22.49023,0,22.96875Q0,23.44727,0.307617,23.75488Q0.615234,24.0625,1.09375,24.0625L1.09375,26.25Q1.09375,26.7285,1.40137,27.036099999999998Q1.70898,27.3437,2.1875,27.3437L3.28125,27.3437L3.28125,29.5313ZM18.5938,29.5313L18.5938,27.3437L18.5938,29.5313L18.5938,27.3437L19.6875,27.3437Q20.166,27.3437,20.4736,27.036099999999998Q20.7812,26.7285,20.7812,26.25L20.7812,24.0625Q21.2598,24.0625,21.5674,23.75488Q21.875,23.44727,21.875,22.96875Q21.875,22.49023,21.5674,22.18262Q21.2598,21.875,20.7812,21.875L20.7812,19.6875Q20.7812,19.20898,20.4736,18.90137Q20.166,18.59375,19.6875,18.59375L18.5938,18.59375L18.5938,16.40625Q18.5938,15.927734,18.2861,15.620117Q17.9785,15.3125,17.5,15.3125L16.4062,15.3125Q15.9277,15.3125,15.6201,15.620117Q15.3125,15.927734,15.3125,16.40625L15.3125,21.875L15.3125,24.0625L15.3125,29.5313Q15.3125,30.0098,15.6201,30.3174Q15.9277,30.625,16.4062,30.625L17.5,30.625Q17.9785,30.625,18.2861,30.3174Q18.5938,30.0098,18.5938,29.5313ZM14.2188,24.0625L14.2188,21.875L14.2188,24.0625L14.2188,21.875L7.65625,21.875L7.65625,24.0625L14.2188,24.0625Z" fill="#4B5563" fill-opacity="1" style="mix-blend-mode:passthrough"/></g></svg>