<svg xmlns="http://www.w3.org/2000/svg" xmlns:xlink="http://www.w3.org/1999/xlink" fill="none" version="1.1" width="13.78125" height="13.78125" viewBox="0 0 13.78125 13.78125"><g transform="matrix(1,0,0,-1,0,27.5625)"><path d="M8.9209,27.10105Q9.10547,27.531750000000002,9.59766,27.56245L13.043,27.56245Q13.7197,27.50095,13.7812,26.82425L13.7812,23.378909999999998Q13.7505,22.88672,13.3198,22.70215Q12.8892,22.517580000000002,12.52,22.85596L11.5049,23.87105L9.87451,22.27148Q10.7974,20.91797,10.8281,19.19531Q10.7666,16.88818,9.22852,15.38086Q7.72119,13.8427734,5.41406,13.78125Q3.10693,13.8427734,1.59961,15.38086Q0.0615234,16.88818,0,19.19531Q0.0615234,21.50244,1.59961,23.00977Q3.10693,24.54785,5.41406,24.60935Q7.13672,24.57865,8.49023,23.65576L10.0898,25.28615L9.07471,26.30125Q8.73633,26.670450000000002,8.9209,27.10105ZM5.41406,15.75Q6.33691,15.75,7.13672,16.21143Q7.93652,16.67285,8.39795,17.47266Q8.85938,18.27246,8.85938,19.19531Q8.85938,20.11816,8.39795,20.91797Q7.93652,21.71777,7.13672,22.1792Q6.33691,22.64063,5.41406,22.64063Q4.49121,22.64063,3.69141,22.1792Q2.8916,21.71777,2.43018,20.91797Q1.96875,20.11816,1.96875,19.19531Q1.96875,18.27246,2.43018,17.47266Q2.8916,16.67285,3.69141,16.21143Q4.49121,15.75,5.41406,15.75Z" fill="#4B5563" fill-opacity="1" style="mix-blend-mode:passthrough"/></g></svg>