<svg xmlns="http://www.w3.org/2000/svg" xmlns:xlink="http://www.w3.org/1999/xlink" fill="none" version="1.1" width="10.828125" height="10.828125" viewBox="0 0 10.828125 10.828125"><g transform="matrix(1,0,0,-1,0,21.65625)"><path d="M5.41406,19.687505Q6.33691,19.687505,7.13672,19.226075Q7.93652,18.764645,8.39795,17.964845Q8.85938,17.165035,8.85938,16.242185Q8.85938,15.319334999999999,8.39795,14.519535Q7.93652,13.719725,7.13672,13.258305Q6.33691,12.796875,5.41406,12.796875Q4.49121,12.796875,3.69141,13.258305Q2.8916,13.719725,2.43018,14.519535Q1.96875,15.319334999999999,1.96875,16.242185Q1.96875,17.165035,2.43018,17.964845Q2.8916,18.764645,3.69141,19.226075Q4.49121,19.687505,5.41406,19.687505ZM5.41406,10.828125Q6.89062,10.828125,8.12109,11.566406Q9.35156,12.273925,10.0898,13.535155Q10.8281,14.827145,10.8281,16.242185Q10.8281,17.657225,10.0898,18.949215000000002Q9.35156,20.210445,8.12109,20.917925Q6.89062,21.656225,5.41406,21.656225Q3.9375,21.656225,2.70703,20.917925Q1.47656,20.210445,0.738281,18.949215000000002Q0,17.657225,0,16.242185Q0,14.827145,0.738281,13.535155Q1.47656,12.273925,2.70703,11.566406Q3.9375,10.828125,5.41406,10.828125Z" fill="#4B5563" fill-opacity="1" style="mix-blend-mode:passthrough"/></g></svg>