<svg xmlns="http://www.w3.org/2000/svg" xmlns:xlink="http://www.w3.org/1999/xlink" fill="none" version="1.1" width="21" height="21" viewBox="0 0 21 21"><g transform="matrix(1,0,0,-1,0,42)"><path d="M19.0312,31.5Q19.0312,29.16211,17.8828,27.23438Q16.7754,25.30664,14.7656,24.11719Q12.7559,22.96875,10.5,22.96875Q8.24414,22.96875,6.23438,24.11719Q4.22461,25.30664,3.11719,27.23438Q1.96875,29.16211,1.96875,31.5Q1.96875,33.8379,3.11719,35.7656Q4.22461,37.6934,6.23438,38.8828Q8.24414,40.0312,10.5,40.0312Q12.7559,40.0312,14.7656,38.8828Q16.7754,37.6934,17.8828,35.7656Q19.0312,33.8379,19.0312,31.5ZM0,31.5Q0.0410156,28.62891,1.39453,26.25Q2.78906,23.87109,5.25,22.39453Q7.75195,21,10.5,21Q13.248,21,15.75,22.39453Q18.2109,23.87109,19.6055,26.25Q20.959,28.62891,21,31.5Q20.959,34.3711,19.6055,36.75Q18.2109,39.1289,15.75,40.6055Q13.248,42,10.5,42Q7.75195,42,5.25,40.6055Q2.78906,39.1289,1.39453,36.75Q0.0410156,34.3711,0,31.5ZM9.51562,37.0781L9.51562,31.5L9.51562,37.0781L9.51562,31.5Q9.51562,30.9668,9.9668,30.67969L13.9043,28.05469Q14.6836,27.60352,15.2578,28.3418Q15.709,29.121090000000002,14.9707,29.69531L11.4844,32.0332L11.4844,37.0781Q11.4023,37.9805,10.5,38.0625Q9.59766,37.9805,9.51562,37.0781Z" fill="#5DBE8A" fill-opacity="1" style="mix-blend-mode:passthrough"/></g></svg>