<svg xmlns="http://www.w3.org/2000/svg" xmlns:xlink="http://www.w3.org/1999/xlink" fill="none" version="1.1" width="26.25" height="21" viewBox="0 0 26.25 21"><g transform="matrix(1,0,0,-1,0,42)"><path d="M13.125,42Q13.6992,42,14.0684,41.6309Q14.4375,41.261700000000005,14.4375,40.6875L14.4375,38.0625L19.3594,38.0625Q20.6309,38.0215,21.4512,37.2012Q22.2715,36.3809,22.3125,35.1094L22.3125,23.95312Q22.2715,22.68164,21.4512,21.861328Q20.6309,21.0410156,19.3594,21L6.89062,21Q5.61914,21.0410156,4.79883,21.861328Q3.97852,22.68164,3.9375,23.95312L3.9375,35.1094Q3.97852,36.3809,4.79883,37.2012Q5.61914,38.0215,6.89062,38.0625L11.8125,38.0625L11.8125,40.6875Q11.8125,41.261700000000005,12.1816,41.6309Q12.5508,42,13.125,42ZM8.53125,26.25Q7.91602,26.20898,7.875,25.59375Q7.91602,24.97852,8.53125,24.9375L9.84375,24.9375Q10.459,24.97852,10.5,25.59375Q10.459,26.20898,9.84375,26.25L8.53125,26.25ZM12.4688,26.25Q11.8535,26.20898,11.8125,25.59375Q11.8535,24.97852,12.4688,24.9375L13.7812,24.9375Q14.3965,24.97852,14.4375,25.59375Q14.3965,26.20898,13.7812,26.25L12.4688,26.25ZM16.4062,26.25Q15.791,26.20898,15.75,25.59375Q15.791,24.97852,16.4062,24.9375L17.7188,24.9375Q18.334,24.97852,18.375,25.59375Q18.334,26.20898,17.7188,26.25L16.4062,26.25ZM10.8281,31.5Q10.7871,32.4434,10.0078,32.9355Q9.1875,33.3457,8.36719,32.9355Q7.58789,32.4434,7.54688,31.5Q7.58789,30.55664,8.36719,30.06445Q9.1875,29.6543,10.0078,30.06445Q10.7871,30.55664,10.8281,31.5ZM17.0625,29.85938Q18.0059,29.90039,18.498,30.67969Q18.9082,31.5,18.498,32.3203Q18.0059,33.0996,17.0625,33.1406Q16.1191,33.0996,15.627,32.3203Q15.2168,31.5,15.627,30.67969Q16.1191,29.90039,17.0625,29.85938ZM1.96875,32.8125L2.625,32.8125L1.96875,32.8125L2.625,32.8125L2.625,24.9375L1.96875,24.9375Q1.14844,24.97852,0.574219,25.51172Q0.0410156,26.08594,0,26.90625L0,30.84375Q0.0410156,31.664099999999998,0.574219,32.2383Q1.14844,32.7715,1.96875,32.8125ZM24.2812,32.8125Q25.1016,32.7715,25.6758,32.2383Q26.209,31.664099999999998,26.25,30.84375L26.25,26.90625Q26.209,26.08594,25.6758,25.51172Q25.1016,24.97852,24.2812,24.9375L23.625,24.9375L23.625,32.8125L24.2812,32.8125Z" fill="#333333" fill-opacity="1" style="mix-blend-mode:passthrough"/></g></svg>