<svg xmlns="http://www.w3.org/2000/svg" xmlns:xlink="http://www.w3.org/1999/xlink" fill="none" version="1.1" width="21" height="17.93294334411621" viewBox="0 0 21 17.93294334411621"><g transform="matrix(1,0,0,-1,0,35.86588668823242)"><path d="M9.26953,18.42513134411621L9.14648,18.50716234411621L9.26953,18.42513134411621L9.14648,18.50716234411621L1.96875,25.19271334411621Q0.0410156,27.03841334411621,0,29.70444334411621L0,29.82744334411621Q0.0410156,32.04234334411621,1.39453,33.68294334411621Q2.70703,35.282543344116206,4.88086,35.733743344116206Q7.42383,36.184943344116206,9.47461,34.74934334411621Q10.0488,34.38024334411621,10.5,33.84704334411621Q10.7461,34.13414334411621,11.0742,34.38024334411621Q11.2793,34.58524334411621,11.5254,34.74934334411621Q13.5762,36.184943344116206,16.1191,35.77474334411621Q18.293,35.32354334411621,19.6055,33.68294334411621Q20.959,32.04234334411621,21,29.82744334411621L21,29.70444334411621Q20.959,27.03841334411621,19.0312,25.19271334411621L11.8535,18.50716234411621L11.7305,18.42513134411621Q11.1973,17.93294334411621,10.5,17.93294334411621Q9.80273,17.93294334411621,9.26953,18.42513134411621ZM9.80273,31.673143344116212L9.76172,31.71414334411621L9.02344,32.53454334411621Q8.28516,33.35484334411621,7.30078,33.68294334411621Q6.31641,34.01104334411621,5.25,33.80594334411621Q3.81445,33.51884334411621,2.91211,32.41144334411621Q2.00977,31.345043344116213,1.96875,29.82744334411621L1.96875,29.70444334411621Q2.00977,27.89974334411621,3.32227,26.62825334411621L10.5,19.94271334411621L17.6777,26.62825334411621Q18.9902,27.89974334411621,19.0312,29.70444334411621L19.0312,29.82744334411621Q18.9902,31.345043344116213,18.0879,32.41144334411621Q17.1855,33.51884334411621,15.75,33.80594334411621Q14.6836,34.01104334411621,13.6992,33.68294334411621Q12.7148,33.35484334411621,11.9766,32.53454334411621L11.2383,31.71414334411621L11.1973,31.673143344116212Q10.9102,31.38604334411621,10.5,31.38604334411621Q10.0898,31.38604334411621,9.80273,31.673143344116212Z" fill="#333333" fill-opacity="1" style="mix-blend-mode:passthrough"/></g></svg>