<svg xmlns="http://www.w3.org/2000/svg" xmlns:xlink="http://www.w3.org/1999/xlink" fill="none" version="1.1" width="13.125" height="28" viewBox="0 0 13.125 28"><defs><clipPath id="master_svg0_30_05033"><rect x="0" y="3.5" width="11.8125" height="21" rx="0"/></clipPath></defs><g><rect x="0" y="0" width="13.125" height="28" rx="0" fill="#000000" fill-opacity="0" style="mix-blend-mode:passthrough"/><g clip-path="url(#master_svg0_30_05033)"><g transform="matrix(1,0,0,-1,0,49.90234375)"><g><path d="M5.25,43.326171875Q4.42969,43.285171875,3.8554700000000004,42.751971874999995Q3.32227,42.177771875000005,3.28125,41.357371875L3.28125,34.589841875Q3.24023,33.523441875,2.66602,32.867191875Q1.96875,32.005861875,1.96875,30.857421875Q2.00977,29.462891875,2.91211,28.519531875Q3.8554700000000004,27.617191875,5.25,27.576171875Q6.64453,27.617191875,7.58789,28.519531875Q8.49023,29.462891875,8.53125,30.857421875Q8.53125,32.005861875,7.83398,32.867191875Q7.30078,33.523441875,7.21875,34.589841875L7.21875,41.357371875Q7.17773,42.177771875000005,6.64453,42.751971874999995Q6.07031,43.285171875,5.25,43.326171875ZM0.65625,41.357371875Q0.6972700000000001,43.326171875,2.00977,44.597671875Q3.28125,45.910171875,5.25,45.951171875Q7.21875,45.910171875,8.49023,44.597671875Q9.80275,43.326171875,9.84375,41.357371875L9.84375,34.630861875L9.84375,34.589841875Q9.88475,34.548831875,9.92575,34.466791875Q11.11525,32.949221875,11.15625,30.857421875Q11.07425,28.355471875,9.43355,26.673831875Q7.751950000000001,25.033203075,5.25,24.951171875Q2.74805,25.033203075,1.06641,26.673831875Q-0.5742188,28.355471875,-0.65625,30.857421875Q-0.6152344,32.949221875,0.57422,34.466791875Q0.6152299999999999,34.548831875,0.65625,34.589841875L0.65625,41.357371875ZM7.21875,30.857421875Q7.17773,30.037111875,6.64453,29.462891875Q6.07031,28.929691875,5.25,28.888671875Q4.42969,28.929691875,3.8554700000000004,29.462891875Q3.32227,30.037111875,3.28125,30.857421875Q3.3632799999999996,32.210941875,4.59375,32.703121875L4.59375,37.419971875Q4.63477,38.035171875,5.25,38.076171875Q5.86523,38.035171875,5.90625,37.419971875L5.90625,32.703121875Q7.13672,32.210941875,7.21875,30.857421875Z" fill="#333333" fill-opacity="1" style="mix-blend-mode:passthrough"/></g></g></g></g></svg>