<svg xmlns="http://www.w3.org/2000/svg" xmlns:xlink="http://www.w3.org/1999/xlink" fill="none" version="1.1" width="13.78125" height="12.25" viewBox="0 0 13.78125 12.25"><g transform="matrix(1,0,0,-1,0,24.5)"><path d="M9.57031,24.5L4.21094,24.5L9.57031,24.5L4.21094,24.5Q3.73242,24.476100000000002,3.39746,24.165Q3.08643,23.8301,3.08643,23.351599999999998Q3.08643,23.1602,3.11035,22.9688L0.574219,22.9688Q0.0478516,22.9209,0,22.3945Q0.0239258,20.743650000000002,0.526367,19.54736Q1.05273,18.375,1.89014,17.58545Q2.67969,16.81982,3.56494,16.38916Q4.4502,15.9585,5.19189,15.76709Q5.59863,15.64746,5.86182,15.36035Q6.125,15.04932,6.125,14.69043Q6.125,14.30762,5.86182,14.04443Q5.59863,13.78125,5.21582,13.78125L4.59375,13.78125Q4.25879,13.78125,4.04346,13.56592Q3.82812,13.35059,3.82812,13.015625Q3.82812,12.680664,4.04346,12.465332Q4.25879,12.25,4.59375,12.25L9.1875,12.25Q9.52246,12.25,9.73779,12.465332Q9.95312,12.680664,9.95312,13.015625Q9.95312,13.35059,9.73779,13.56592Q9.52246,13.78125,9.1875,13.78125L8.56543,13.78125Q8.18262,13.78125,7.91943,14.04443Q7.65625,14.30762,7.65625,14.69043Q7.65625,15.04932,7.91943,15.36035Q8.18262,15.64746,8.58936,15.76709Q9.33105,15.9585,10.2163,16.38916Q11.1016,16.81982,11.915,17.58545Q12.7285,18.375,13.2549,19.54736Q13.7573,20.743650000000002,13.7812,22.3945Q13.7334,22.9209,13.207,22.9688L10.6709,22.9688Q10.6948,23.1602,10.6948,23.351599999999998Q10.6948,23.8301,10.3838,24.165Q10.0488,24.476100000000002,9.57031,24.5ZM1.17236,21.82031L3.18213,21.82031L1.17236,21.82031L3.18213,21.82031Q3.34961,20.21729,3.68457,19.09277Q4.01953,17.96826,4.42627,17.25049Q3.51709,17.6333,2.67969,18.42285Q2.10547,18.97314,1.6748,19.81055Q1.26807,20.64795,1.17236,21.82031ZM11.1016,18.42285Q10.2642,17.6333,9.35498,17.25049Q9.76172,17.96826,10.0967,19.09277Q10.4316,20.21729,10.5991,21.82031L12.6089,21.82031Q12.5132,20.64795,12.1064,19.81055Q11.6997,18.97314,11.1016,18.42285Z" fill="#FFFFFF" fill-opacity="1" style="mix-blend-mode:passthrough"/></g></svg>