<svg xmlns="http://www.w3.org/2000/svg" xmlns:xlink="http://www.w3.org/1999/xlink" fill="none" version="1.1" width="12.25" height="12.25" viewBox="0 0 12.25 12.25"><g transform="matrix(1,0,0,-1,0,24.5)"><path d="M9.625,19.25Q10.7461,19.27734,11.4844,20.01562Q12.2227,20.753909999999998,12.25,21.875Q12.2227,22.9961,11.4844,23.7344Q10.7461,24.4727,9.625,24.5Q8.50391,24.4727,7.76562,23.7344Q7.02734,22.9961,7,21.875Q7,21.71094,7.02734,21.54688L4.45703,20.26172Q3.71875,20.972659999999998,2.625,21Q1.50391,20.972659999999998,0.765625,20.23438Q0.0273438,19.49609,0,18.375Q0.0273438,17.25391,0.765625,16.51562Q1.50391,15.77734,2.625,15.75Q3.71875,15.77734,4.45703,16.48828L7.02734,15.20312Q7,15.03906,7,14.875Q7.02734,13.75391,7.76562,13.015625Q8.50391,12.2773438,9.625,12.25Q10.7461,12.2773438,11.4844,13.015625Q12.2227,13.75391,12.25,14.875Q12.2227,15.99609,11.4844,16.73438Q10.7461,17.47266,9.625,17.5Q8.53125,17.47266,7.79297,16.76172L5.22266,18.04688Q5.25,18.21094,5.25,18.375Q5.25,18.53906,5.22266,18.70312L7.79297,19.98828Q8.53125,19.27734,9.625,19.25Z" fill="#FFFFFF" fill-opacity="1" style="mix-blend-mode:passthrough"/></g></svg>