<svg xmlns="http://www.w3.org/2000/svg" xmlns:xlink="http://www.w3.org/1999/xlink" fill="none" version="1.1" width="18.046875" height="21" viewBox="0 0 18.046875 21"><defs><clipPath id="master_svg0_30_05018"><rect x="0" y="0" width="18.046875" height="21" rx="0"/></clipPath></defs><g clip-path="url(#master_svg0_30_05018)"><g transform="matrix(1,0,0,-1,0,26.49609375)"><g><path d="M-0.1640625,15.544926875Q-0.1230469,16.857426875,0.9843774999999999,17.513666875Q2.1328175,18.169926875,3.2812475,17.513666875Q4.3886675,16.857426875,4.4296875,15.544926875Q4.3886675,14.232421875,3.2812475,13.576171875Q2.1328175,12.919921875,0.9843774999999999,13.576171875Q-0.1230469,14.232421875,-0.1640625,15.544926875ZM6.3984375,15.544926875Q6.4394575,16.857426875,7.5468775,17.513666875Q8.6953175,18.169926875,9.8437375,17.513666875Q10.9511375,16.857426875,10.9921375,15.544926875Q10.9511375,14.232421875,9.8437375,13.576171875Q8.6953175,12.919921875,7.5468775,13.576171875Q6.4394575,14.232421875,6.3984375,15.544926875ZM15.2578375,17.841796875Q16.5703375,17.800776875,17.2265375,16.693356875Q17.8828375,15.544926875,17.2265375,14.396486875Q16.5703375,13.289062475,15.2578375,13.248046875Q13.9453375,13.289062475,13.2890375,14.396486875Q12.6328375,15.544926875,13.2890375,16.693356875Q13.9453375,17.800776875,15.2578375,17.841796875Z" fill="#333333" fill-opacity="1" style="mix-blend-mode:passthrough"/></g></g></g></svg>