<svg xmlns="http://www.w3.org/2000/svg" xmlns:xlink="http://www.w3.org/1999/xlink" fill="none" version="1.1" width="23.625" height="18.375" viewBox="0 0 23.625 18.375"><g transform="matrix(1,0,0,-1,0,36.75)"><path d="M2.625,34.7812Q2.00977,34.7402,1.96875,34.125L1.96875,21Q2.00977,20.38477,2.625,20.34375L21,20.34375Q21.6152,20.38477,21.6562,21L21.6562,34.125Q21.6152,34.7402,21,34.7812L2.625,34.7812ZM0,34.125Q0.0410156,35.2324,0.779297,35.9707Q1.51758,36.709,2.625,36.75L21,36.75Q22.1074,36.709,22.8457,35.9707Q23.584,35.2324,23.625,34.125L23.625,21Q23.584,19.89258,22.8457,19.154297Q22.1074,18.4160156,21,18.375L2.625,18.375Q1.51758,18.4160156,0.779297,19.154297Q0.0410156,19.89258,0,21L0,34.125ZM3.9375,31.5Q3.9375,32.0742,4.30664,32.4434Q4.67578,32.8125,5.25,32.8125Q5.82422,32.8125,6.19336,32.4434Q6.5625,32.0742,6.5625,31.5Q6.5625,30.925800000000002,6.19336,30.5566Q5.82422,30.1875,5.25,30.1875Q4.67578,30.1875,4.30664,30.5566Q3.9375,30.925800000000002,3.9375,31.5ZM8.20312,31.5Q8.28516,32.4023,9.1875,32.4844L18.375,32.4844Q19.2773,32.4023,19.3594,31.5Q19.2773,30.5977,18.375,30.5156L9.1875,30.5156Q8.28516,30.5977,8.20312,31.5ZM8.20312,27.5625Q8.28516,28.4648,9.1875,28.5469L18.375,28.5469Q19.2773,28.4648,19.3594,27.5625Q19.2773,26.660159999999998,18.375,26.57812L9.1875,26.57812Q8.28516,26.660159999999998,8.20312,27.5625ZM8.20312,23.625Q8.28516,24.52734,9.1875,24.60938L18.375,24.60938Q19.2773,24.52734,19.3594,23.625Q19.2773,22.72266,18.375,22.64062L9.1875,22.64062Q8.28516,22.72266,8.20312,23.625ZM5.25,26.25Q4.67578,26.25,4.30664,26.61914Q3.9375,26.98828,3.9375,27.5625Q3.9375,28.13672,4.30664,28.5059Q4.67578,28.875,5.25,28.875Q5.82422,28.875,6.19336,28.5059Q6.5625,28.13672,6.5625,27.5625Q6.5625,26.98828,6.19336,26.61914Q5.82422,26.25,5.25,26.25ZM3.9375,23.625Q3.9375,24.19922,4.30664,24.56836Q4.67578,24.9375,5.25,24.9375Q5.82422,24.9375,6.19336,24.56836Q6.5625,24.19922,6.5625,23.625Q6.5625,23.05078,6.19336,22.68164Q5.82422,22.3125,5.25,22.3125Q4.67578,22.3125,4.30664,22.68164Q3.9375,23.05078,3.9375,23.625Z" fill="#5DBE8A" fill-opacity="1" style="mix-blend-mode:passthrough"/></g></svg>