<svg xmlns="http://www.w3.org/2000/svg" xmlns:xlink="http://www.w3.org/1999/xlink" fill="none" version="1.1" width="42" height="42" viewBox="0 0 42 42"><defs><clipPath id="master_svg0_101_19136"><rect x="14.875" y="14" width="12.25" height="14" rx="0"/></clipPath></defs><g><rect x="0" y="0" width="42" height="42" rx="21" fill="#DCFCE7" fill-opacity="1" style="mix-blend-mode:passthrough"/><g clip-path="url(#master_svg0_101_19136)"><g transform="matrix(1,0,0,-1,0,56.6015625)"><g><path d="M21,39.23828125Q20.58984,39.26558125,20.5625,39.67578125L20.5625,40.11328125Q20.58984,41.04298125,21.19141,41.67188125Q21.82031,42.27348125,22.75,42.30078125L23.1875,42.30078125Q23.597659999999998,42.27348125,23.625,41.86328125L23.625,41.42578125Q23.597659999999998,40.49608125,22.996090000000002,39.86718125Q22.36719,39.26558125,21.4375,39.23828125L21,39.23828125ZM14.875,34.42578125Q14.875,36.06640125,15.613281,37.40625125Q16.37891,38.71878125,17.9375,38.80078125Q18.51172,38.80078125,19.11328,38.63668125Q19.71484,38.47268125,20.20703,38.28125125Q21,37.98047125,21.79297,38.28125125Q22.28516,38.47268125,22.88672,38.63668125Q23.48828,38.80078125,24.0625,38.80078125Q25.6211,38.71878125,26.386699999999998,37.40625125Q27.125,36.06640125,27.125,34.42578125Q27.0703,31.74609125,25.7578,30.05078125Q24.472659999999998,28.35546875,22.75,28.30078125Q22.39453,28.30078125,22.01172,28.41015625Q21.62891,28.51953125,21.35547,28.60156225Q21,28.73828125,20.67188,28.60156225Q20.37109,28.51953125,19.98828,28.41015625Q19.60547,28.30078125,19.25,28.30078125Q17.55469,28.35546875,16.24219,30.05078125Q14.9296875,31.74609125,14.875,34.42578125Z" fill="#5DBE8A" fill-opacity="1" style="mix-blend-mode:passthrough"/></g></g></g></g></svg>