<svg xmlns="http://www.w3.org/2000/svg" xmlns:xlink="http://www.w3.org/1999/xlink" fill="none" version="1.1" width="42" height="42" viewBox="0 0 42 42"><defs><clipPath id="master_svg0_101_19170"><rect x="14.875" y="14" width="12.25" height="14" rx="0"/></clipPath></defs><g><rect x="0" y="0" width="42" height="42" rx="21" fill="#DCFCE7" fill-opacity="1" style="mix-blend-mode:passthrough"/><g clip-path="url(#master_svg0_101_19170)"><g transform="matrix(1,0,0,-1,0,56.6015625)"><g><path d="M23.82688859375,40.98828125Q23.79743859375,41.72658125,23.12015859375,42.13668125Q22.413428593749998,42.46488125,21.706698593749998,42.13668125Q21.02940859375,41.72658125,20.99995859375,40.98828125Q21.02940859375,40.24998125,21.706698593749998,39.83988125Q22.413428593749998,39.51168125,23.12015859375,39.83988125Q23.79743859375,40.24998125,23.82688859375,40.98828125ZM18.11414859375,37.48828125Q18.55584859375,37.92578125,19.20368859375,37.92578125Q19.29202859375,37.92578125,19.38036859375,37.92578125L18.46750859375,35.35547125Q18.26137859375,34.75390125,18.46750859375,34.20703125Q18.67363859375,33.66016125,19.23313859375,33.30469125L21.79503859375,31.85547125L21.02940859375,29.42187125Q20.94106859375,29.06640625,21.11774859375,28.73828125Q21.29443859375,28.43750025,21.67724859375,28.32812505Q22.06005859375,28.24609375,22.413428593749998,28.41015625Q22.73733859375,28.57421825,22.855128593750003,28.92968725L23.70909859375,31.69140125Q23.82688859375,32.10156125,23.65020859375,32.51172125Q23.502968593749998,32.92187125,23.09070859375,33.14062125L21.412218593749998,34.12500125L22.32507859375,36.36719125L22.47231859375,36.03906125Q22.82568859375,35.30078125,23.502968593749998,34.86328125Q24.209698593749998,34.42578125,25.09310859375,34.42578125L25.71150859375,34.42578125Q26.12380859375,34.42578125,26.38880859375,34.67187125Q26.65380859375,34.91797125,26.65380859375,35.30078125Q26.65380859375,35.68359125,26.38880859375,35.92969125Q26.12380859375,36.17578125,25.71150859375,36.17578125L25.09310859375,36.17578125Q24.47470859375,36.20312125,24.209698593749998,36.72266125L24.03301859375,37.13281125Q23.32628859375,38.60938125,21.64779859375,39.12888125L20.23433859375,39.53908125Q19.73373859375,39.67578125,19.20368859375,39.67578125Q17.79022859375,39.64848125,16.78902859375,38.74608125L16.08229859375,38.11719125Q15.81726859375,37.84375125,15.81726859375,37.48828125Q15.81726859375,37.13281125,16.08229859375,36.85937125Q16.37676859375,36.61328125,16.75957859375,36.61328125Q17.14238859375,36.61328125,17.43685859375,36.85937125L18.11414859375,37.48828125ZM17.08349859375,32.67578125L15.34611659375,32.67578125L17.08349859375,32.67578125L15.34611659375,32.67578125Q14.93385659375,32.67578125,14.66883259375,32.42969125Q14.40380859375,32.18359125,14.40380859375,31.80078125Q14.40380859375,31.41797125,14.66883259375,31.17187125Q14.93385659375,30.92578125,15.34611659375,30.92578125L17.407418593750002,30.92578125Q18.29082859375,30.95312125,18.70308859375,31.69140125L19.02700859375,32.40234125L18.76197859375,32.56640125Q17.96690859375,33.03125125,17.64298859375,33.79687125L17.08349859375,32.67578125Z" fill="#5DBE8A" fill-opacity="1" style="mix-blend-mode:passthrough"/></g></g></g></g></svg>