<svg xmlns="http://www.w3.org/2000/svg" xmlns:xlink="http://www.w3.org/1999/xlink" fill="none" version="1.1" width="42" height="42" viewBox="0 0 42 42"><defs><clipPath id="master_svg0_101_19153"><rect x="12.25" y="14" width="17.5" height="14" rx="0"/></clipPath></defs><g><rect x="0" y="0" width="42" height="42" rx="21" fill="#DCFCE7" fill-opacity="1" style="mix-blend-mode:passthrough"/><g clip-path="url(#master_svg0_101_19153)"><g transform="matrix(1,0,0,-1,0,54.8515625)"><g><path d="M13.125,39.67578125Q13.50781,39.67578125,13.75391,39.42968125Q14,39.18358125,14,38.80078125L14,31.80078125L20.125,31.80078125L20.125,36.17578125Q20.125,36.55859125,20.371090000000002,36.80469125Q20.61719,37.05078125,21,37.05078125L27.125,37.05078125Q28.2461,37.02344125,28.9844,36.28516125Q29.7227,35.54687125,29.75,34.42578125L29.75,28.30078125Q29.75,27.91796925,29.5039,27.67187525Q29.2578,27.42578125,28.875,27.42578125Q28.4922,27.42578125,28.2461,27.67187525Q28,27.91796925,28,28.30078125L28,29.17578125L21.875,29.17578125L14,29.17578125L14,28.30078125Q14,27.91796925,13.75391,27.67187525Q13.50781,27.42578125,13.125,27.42578125Q12.742188,27.42578125,12.496094,27.67187525Q12.25,27.91796925,12.25,28.30078125L12.25,38.80078125Q12.25,39.18358125,12.496094,39.42968125Q12.742188,39.67578125,13.125,39.67578125ZM17.0625,37.05078125Q18.29297,37.02344125,18.94922,35.95703125Q19.55078,34.86328125,18.94922,33.76953125Q18.29297,32.70312125,17.0625,32.67578125Q15.83203,32.70312125,15.17578,33.76953125Q14.57422,34.86328125,15.17578,35.95703125Q15.83203,37.02344125,17.0625,37.05078125Z" fill="#5DBE8A" fill-opacity="1" style="mix-blend-mode:passthrough"/></g></g></g></g></svg>