<svg xmlns="http://www.w3.org/2000/svg" xmlns:xlink="http://www.w3.org/1999/xlink" fill="none" version="1.1" width="14" height="11.967447280883789" viewBox="0 0 14 11.967447280883789"><g transform="matrix(1,0,0,-1,0,23.934894561767578)"><path d="M6.23438,12.26822828088379L1.3125,16.88932728088379L6.23438,12.26822828088379L1.3125,16.88932728088379Q1.12109,17.026037280883788,0.984375,17.21744728088379L3.36328,17.21744728088379Q4.34766,17.27213728088379,4.75781,18.14713728088379L5.05859,18.858067280883787L6.39844,15.850257280883788Q6.58984,15.49478728088379,7,15.467447280883789Q7.38281,15.467447280883789,7.60156,15.82291728088379L8.75,18.14713728088379L8.80469,18.06510728088379Q9.24219,17.244787280883788,10.1719,17.21744728088379L13.0156,17.21744728088379Q12.8789,17.026037280883788,12.6875,16.86197728088379L7.76562,12.26822828088379Q7.4375,11.967447280883789,7,11.967447280883789Q6.5625,11.967447280883789,6.23438,12.26822828088379ZM13.7812,18.52994728088379L10.1719,18.52994728088379L13.7812,18.52994728088379L10.1719,18.52994728088379Q10.0352,18.52994728088379,9.98047,18.63932728088379L9.32422,19.92447728088379Q9.13281,20.252607280883787,8.75,20.27994728088379Q8.33984,20.252607280883787,8.14844,19.92447728088379L7.02734,17.65494728088379L5.63281,20.77213728088379Q5.44141,21.15494728088379,5.03125,21.15494728088379Q4.59375,21.127607280883787,4.42969,20.74478728088379L3.55469,18.66666728088379Q3.5,18.52994728088379,3.36328,18.52994728088379L0.4375,18.52994728088379Q0.328125,18.52994728088379,0.246094,18.50260728088379Q0,19.15885728088379,0,19.869787280883788L0,20.033857280883787Q0.0273438,21.51041728088379,0.929688,22.54944728088379Q1.83203,23.61584728088379,3.25391,23.88934728088379Q4.21094,24.026047280883787,5.11328,23.75264728088379Q5.98828,23.479147280883787,6.67188,22.79554728088379L7,22.46744728088379L7.32812,22.79554728088379Q8.01172,23.479147280883787,8.88672,23.75264728088379Q9.78906,24.026047280883787,10.7461,23.88934728088379Q12.168,23.61584728088379,13.0703,22.54944728088379Q13.9727,21.51041728088379,14,20.033857280883787L14,19.869787280883788Q14,19.18619728088379,13.7812,18.52994728088379Z" fill="#5DBE8A" fill-opacity="1" style="mix-blend-mode:passthrough"/></g></svg>