<svg xmlns="http://www.w3.org/2000/svg" xmlns:xlink="http://www.w3.org/1999/xlink" fill="none" version="1.1" width="42" height="42" viewBox="0 0 42 42"><defs><clipPath id="master_svg0_94_14992"><rect x="12.25" y="12.25" width="17.5" height="17.5" rx="0"/></clipPath></defs><g><rect x="0" y="0" width="42" height="42" rx="21" fill="#F0FDF4" fill-opacity="1" style="mix-blend-mode:passthrough"/><g><rect x="12.25" y="8.75" width="17.5" height="24.5" rx="0" fill="#000000" fill-opacity="0" style="mix-blend-mode:passthrough"/><g clip-path="url(#master_svg0_94_14992)"><g transform="matrix(1,0,0,-1,0,60.251953125)"><g><path d="M29.75,46.5321765625Q29.6816,43.5585765625,27.835900000000002,41.4736765625Q25.9902,39.3886765625,23.1191,38.9443365625Q22.709,41.7128765625,20.86328,43.6952765625Q21.888669999999998,45.4726765625,23.6318,46.5321765625Q25.375,47.5917765625,27.5625,47.6259765625L28.6562,47.6259765625Q29.1348,47.6259765625,29.4424,47.3183765625Q29.75,47.0107765625,29.75,46.5321765625ZM12.25,44.3447765625Q12.25,44.8232765625,12.557617,45.1308765625Q12.865234,45.4384765625,13.34375,45.4384765625L14.4375,45.4384765625Q16.59082,45.4042765625,18.2998,44.3788765625Q20.04297,43.3876765625,21.03418,41.6445765625Q22.05957,39.9355465625,22.09375,37.7822265625L22.09375,36.6884765625L22.09375,31.2197265625Q22.09375,30.7412105625,21.78613,30.4335935625Q21.47852,30.1259765625,21,30.1259765625Q20.52148,30.1259765625,20.21387,30.4335935625Q19.90625,30.7412105625,19.90625,31.2197265625L19.90625,36.6884765625Q17.75293,36.7226565625,16.04395,37.7480465625Q14.30078,38.7392565625,13.30957,40.4823765625Q12.2841797,42.1913765625,12.25,44.3447765625Z" fill="#16A34A" fill-opacity="1" style="mix-blend-mode:passthrough"/></g></g></g></g></g></svg>