<svg xmlns="http://www.w3.org/2000/svg" xmlns:xlink="http://www.w3.org/1999/xlink" fill="none" version="1.1" width="42" height="42" viewBox="0 0 42 42"><defs><clipPath id="master_svg0_94_15030"><rect x="14.4375" y="12.25" width="13.125" height="17.5" rx="0"/></clipPath></defs><g><rect x="0" y="0" width="42" height="42" rx="21" fill="#F0FDF4" fill-opacity="1" style="mix-blend-mode:passthrough"/><g><rect x="14.4375" y="8.75" width="13.125" height="24.5" rx="0" fill="#000000" fill-opacity="0" style="mix-blend-mode:passthrough"/><g clip-path="url(#master_svg0_94_15030)"><g transform="matrix(1,0,0,-1,0,60.25956726074219)"><g><path d="M20.568148632812502,47.42848363037109Q21.1662486328125,47.804483630371095,21.7643486328125,47.42848363037109L22.3624486328125,47.05248363037109Q22.6614986328125,46.847483630371094,23.0270086328125,46.847483630371094L23.724788632812498,46.915783630371095Q24.4558086328125,46.915783630371095,24.788048632812497,46.266383630371095L25.1203486328125,45.616983630371095Q25.2865486328125,45.309383630371094,25.5855486328125,45.13848363037109L26.2501486328125,44.79668363037109Q26.8482486328125,44.45488363037109,26.8482486328125,43.70288363037109L26.7817486328125,42.9851836303711Q26.7817486328125,42.60918363037109,26.9811486328125,42.30158363037109L27.3798486328125,41.68628363037109Q27.7453486328125,41.07108363037109,27.3798486328125,40.45588363037109L26.9811486328125,39.840613630371095Q26.7817486328125,39.532993630371095,26.7817486328125,39.15702363037109L26.8482486328125,38.439243630371095Q26.8482486328125,37.687293630371094,26.2168486328125,37.345493630371095L25.5855486328125,37.003693630371096Q25.2865486328125,36.832803630371096,25.1203486328125,36.525183630371096L24.788048632812497,35.841593630371094Q24.4558086328125,35.226353630371094,23.7580186328125,35.226353630371094L23.0270086328125,35.29471363037109Q22.6614986328125,35.29471363037109,22.3624486328125,35.0896336303711L21.7643486328125,34.679483630371095Q21.1662486328125,34.3035036303711,20.568148632812502,34.679483630371095L19.9700486328125,35.0896336303711Q19.6709986328125,35.29471363037109,19.305488632812498,35.29471363037109L18.6077086328125,35.226353630371094Q17.8766886328125,35.226353630371094,17.544408632812498,35.87577363037109L17.2121386328125,36.525183630371096Q17.0459986328125,36.832803630371096,16.7469486328125,37.003693630371096L16.1156186328125,37.345493630371095Q15.4842866328125,37.687293630371094,15.4842866328125,38.405063630371096L15.5507426328125,39.15702363037109Q15.5507426328125,39.532993630371095,15.3513756328125,39.840613630371095L14.9858696328125,40.45588363037109Q14.6203626328125,41.07108363037109,14.9858696328125,41.68628363037109L15.3513756328125,42.30158363037109Q15.5507426328125,42.60918363037109,15.5507426328125,42.9851836303711L15.4842866328125,43.70288363037109Q15.4842866328125,44.45488363037109,16.1156186328125,44.79668363037109L16.7469486328125,45.13848363037109Q17.0459986328125,45.309383630371094,17.2121386328125,45.616983630371095L17.544408632812498,46.266383630371095Q17.8766886328125,46.915783630371095,18.6077086328125,46.915783630371095L19.305488632812498,46.847483630371094Q19.6709986328125,46.847483630371094,19.9700486328125,47.05248363037109L20.568148632812502,47.42848363037109ZM23.8244786328125,41.07108363037109Q23.7912486328125,42.60918363037109,22.4953586328125,43.429483630371095Q21.1662486328125,44.181383630371094,19.8371386328125,43.429483630371095Q18.5412486328125,42.60918363037109,18.5080186328125,41.07108363037109Q18.5412486328125,39.532993630371095,19.8371386328125,38.712683630371096Q21.1662486328125,37.960733630371095,22.4953586328125,38.712683630371096Q23.7912486328125,39.532993630371095,23.8244786328125,41.07108363037109ZM14.8197299328125,32.526163630371094L16.2485286328125,36.04666363037109L14.8197299328125,32.526163630371094L16.2485286328125,36.04666363037109Q16.2817586328125,36.04666363037109,16.2817586328125,36.012483630371094L16.5808086328125,35.36307363037109Q17.2785886328125,34.132603630371094,18.6409286328125,34.132603630371094L19.3719486328125,34.20096363037109L19.3719486328125,34.16678363037109L19.9700486328125,33.790803630371094Q20.2358686328125,33.619913630371094,20.5016886328125,33.5173736303711L19.272258632812502,30.475378630371093Q19.1393486328125,30.167761130371094,18.807068632812502,30.133581490371093Q18.5080186328125,30.099401830371093,18.3418786328125,30.372839630371093L17.2453586328125,32.04764363037109L15.3846036328125,31.774203630371094Q15.0855526328125,31.740023630371095,14.8861856328125,31.979283630371093Q14.7200464328125,32.252723630371094,14.8197299328125,32.526163630371094ZM23.0602386328125,30.475378630371093L21.8308086328125,33.5173736303711L23.0602386328125,30.475378630371093L21.8308086328125,33.5173736303711Q22.0966286328125,33.619913630371094,22.3624486328125,33.790803630371094L22.9605486328125,34.16678363037109Q22.9605486328125,34.20096363037109,22.9605486328125,34.20096363037109L23.691568632812498,34.132603630371094Q25.0539486328125,34.132603630371094,25.7516486328125,35.36307363037109L26.0507486328125,36.012483630371094Q26.0507486328125,36.04666363037109,26.0839486328125,36.04666363037109L27.5127486328125,32.526163630371094Q27.6124486328125,32.252723630371094,27.4463486328125,31.979283630371093Q27.2469486328125,31.740023630371095,26.9478486328125,31.774203630371094L25.0871486328125,32.04764363037109L23.9906186328125,30.372839630371093Q23.8244786328125,30.133581490371093,23.5254286328125,30.133581490371093Q23.193148632812502,30.167761130371094,23.0602386328125,30.475378630371093Z" fill="#16A34A" fill-opacity="1" style="mix-blend-mode:passthrough"/></g></g></g></g></g></svg>