<svg xmlns="http://www.w3.org/2000/svg" xmlns:xlink="http://www.w3.org/1999/xlink" fill="none" version="1.1" width="42" height="42" viewBox="0 0 42 42"><defs><clipPath id="master_svg0_94_15014"><rect x="11.15625" y="12.25" width="18.3125" height="17.5" rx="0"/></clipPath></defs><g><rect x="0" y="0" width="42" height="42" rx="21" fill="#F0FDF4" fill-opacity="1" style="mix-blend-mode:passthrough"/><g><rect x="11.15625" y="8.75" width="19.6875" height="24.5" rx="0" fill="#000000" fill-opacity="0" style="mix-blend-mode:passthrough"/><g clip-path="url(#master_svg0_94_15014)"><g transform="matrix(1,0,0,-1,0,60.2553596496582)"><g><path d="M20.61995555496216,47.0141798248291Q20.312515554962157,47.5951798248291,19.62921555496216,47.6293798248291Q18.980075554962156,47.5951798248291,18.638425554962158,47.0141798248291L16.451855554962158,42.5024798248291L11.532080554962159,41.7504798248291Q10.882943554962159,41.6479798248291,10.677952754962158,41.0326798248291Q10.472961554962158,40.3832798248291,10.951273554962158,39.904779824829106L14.504445554962158,36.384269824829104L13.650315554962159,31.3940398248291Q13.58198555496216,30.7446228248291,14.094465554962158,30.3344668248291Q14.64110555496216,29.958490824829102,15.256075554962159,30.266107824829103L19.62921555496216,32.5903298248291L24.036555554962156,30.266107824829103Q24.61735555496216,29.958490824829102,25.163955554962158,30.3344668248291Q25.710555554962156,30.7446228248291,25.60815555496216,31.3940398248291L24.78815555496216,36.384269824829104L28.34135555496216,39.904779824829106Q28.78545555496216,40.3832798248291,28.61465555496216,41.0326798248291Q28.37545555496216,41.6479798248291,27.726355554962158,41.7504798248291L22.80655555496216,42.5024798248291L20.61995555496216,47.0141798248291Z" fill="#16A34A" fill-opacity="1" style="mix-blend-mode:passthrough"/></g></g></g></g></g></svg>