<svg xmlns="http://www.w3.org/2000/svg" xmlns:xlink="http://www.w3.org/1999/xlink" fill="none" version="1.1" width="42" height="42" viewBox="0 0 42 42"><defs><clipPath id="master_svg0_94_15003"><rect x="13.34375" y="12.25" width="15.3125" height="17.5" rx="0"/></clipPath></defs><g><rect x="0" y="0" width="42" height="42" rx="21" fill="#F3F4F6" fill-opacity="1" style="mix-blend-mode:passthrough"/><g><rect x="13.34375" y="8.75" width="15.3125" height="24.5" rx="0" fill="#000000" fill-opacity="0" style="mix-blend-mode:passthrough"/><g clip-path="url(#master_svg0_94_15003)"><g transform="matrix(1,0,0,-1,0,60.251953125)"><g><path d="M18.26563,42.7040765625L18.26563,41.0634765625L18.26563,42.7040765625L18.26563,41.0634765625L23.73435,41.0634765625L23.73435,42.7040765625Q23.70015,43.8661765625,22.94824,44.6523765625Q22.16211,45.4042765625,21,45.4384765625Q19.83789,45.4042765625,19.05176,44.6523765625Q18.2998,43.8661765625,18.26563,42.7040765625ZM16.07813,41.0634765625L16.07813,42.7040765625L16.07813,41.0634765625L16.07813,42.7040765625Q16.14648,44.7890765625,17.51367,46.190476562499995Q18.91504,47.5575765625,21,47.6259765625Q23.084960000000002,47.5575765625,24.48635,46.190476562499995Q25.85355,44.7890765625,25.92185,42.7040765625L25.92185,41.0634765625L26.46875,41.0634765625Q27.39165,41.0292765625,28.00685,40.4140765625Q28.62205,39.7988265625,28.65625,38.8759765625L28.65625,32.3134765625Q28.62205,31.3906265625,28.00685,30.7753905625Q27.39165,30.1601562625,26.46875,30.1259765625L15.53125,30.1259765625Q14.6084,30.1601562625,13.993164,30.7753905625Q13.3779297,31.3906265625,13.34375,32.3134765625L13.34375,38.8759765625Q13.3779297,39.7988265625,13.993164,40.4140765625Q14.6084,41.0292765625,15.53125,41.0634765625L16.07813,41.0634765625Z" fill="#9CA3AF" fill-opacity="1" style="mix-blend-mode:passthrough"/></g></g></g></g></g></svg>