<svg xmlns="http://www.w3.org/2000/svg" xmlns:xlink="http://www.w3.org/1999/xlink" fill="none" version="1.1" width="12.25" height="14.007133483886719" viewBox="0 0 12.25 14.007133483886719"><g transform="matrix(1,0,0,-1,0,28.014266967773438)"><path d="M4.34766,27.87043348388672Q4.73047,28.171233483886716,5.11328,27.84303348388672Q6.23438,26.80403348388672,7.24609,25.546233483886716Q7.68359,26.175133483886718,8.25781,26.72193348388672Q8.64062,27.050133483886718,9.02344,26.72193348388672Q9.73438,26.038333483886717,10.3086,25.190733483886717Q10.9102,24.37043348388672,11.3203,23.49541348388672Q11.7578,22.647753483886717,12.0039,21.85479348388672Q12.25,21.06182348388672,12.25,20.43291348388672Q12.2227,18.68291348388672,11.4297,17.233693483886718Q10.6094,15.78447348388672,9.21484,14.909477483886718Q7.84766,14.03447728388672,6.125,14.007133483886719Q4.40234,14.03447728388672,3.00781,14.909477483886718Q1.64062,15.78447348388672,0.820312,17.233693483886718Q0.0273438,18.68291348388672,0,20.43291348388672Q0.0546875,22.073543483886716,1.23047,24.04233348388672Q2.40625,26.038333483886717,4.34766,27.87043348388672ZM6.17969,16.63213348388672Q7.19141,16.63213348388672,8.06641,17.20635348388672Q8.91406,17.835253483886717,9.13281,18.87432348388672Q9.32422,19.88604348388672,8.83203,20.87041348388672Q8.55859,21.253223483886718,8.20312,20.92510348388672L7.51953,20.13213348388672Q7.16406,19.83135348388672,6.83594,20.159473483886718Q6.48047,20.596973483886718,5.98828,21.22588348388672Q5.49609,21.85479348388672,5.11328,22.31963348388672Q4.78516,22.647753483886717,4.45703,22.34697348388672Q3.74609,21.471973483886718,3.41797,20.84307348388672Q3.0625,20.21416348388672,3.0625,19.61260348388672Q3.08984,18.190723483886718,3.96484,17.42510348388672Q4.83984,16.63213348388672,6.17969,16.63213348388672Z" fill="#5DBE8A" fill-opacity="1" style="mix-blend-mode:passthrough"/></g></svg>