<svg xmlns="http://www.w3.org/2000/svg" xmlns:xlink="http://www.w3.org/1999/xlink" fill="none" version="1.1" width="8.689613342285156" height="14" viewBox="0 0 8.689613342285156 14"><g transform="matrix(1,0,0,-1,0,28)"><path d="M4.34783,26.6875Q4.375,27.425800000000002,5,27.835900000000002Q5.65217,28.164099999999998,6.30435,27.835900000000002Q6.92935,27.425800000000002,6.95652,26.6875Q6.92935,25.949199999999998,6.30435,25.539099999999998Q5.65217,25.210900000000002,5,25.539099999999998Q4.375,25.949199999999998,4.34783,26.6875ZM3.45109,22.558590000000002Q3.42391,22.53125,3.39674,22.53125Q3.36957,22.53125,3.36957,22.503909999999998L3.15217,22.42188Q2.44565,22.09375,2.20109,21.38281L2.11957,21.16406Q2.01087,20.80859,1.68478,20.67188Q1.38587,20.50781,1.03261,20.61719Q0.679348,20.72656,0.516304,21.05469Q0.380435,21.35547,0.48913,21.71094L0.543478,21.92969Q1.05978,23.378909999999998,2.44565,24.0352L2.66304,24.1172Q3.50543,24.5,4.45652,24.5Q5.38043,24.5,6.11413,24.0078Q6.84783,23.48828,7.22826,22.64062L7.63587,21.62891L8.20652,21.35547Q8.53261,21.16406,8.6413,20.83594Q8.75,20.50781,8.61413,20.17969Q8.42391,19.85156,8.09783,19.74219Q7.77174,19.63281,7.44565,19.76953L6.71196,20.15234Q6.27717,20.37109,6.08696,20.80859L5.84239,21.4375L5.29891,19.66016L6.65761,18.18359Q6.875,17.9375,6.95652,17.60938L7.58152,15.09375Q7.66304,14.738281,7.47283,14.4375Q7.30978,14.136719,6.95652,14.0273438Q6.57609,13.9453125,6.27717,14.136719Q6.00543,14.300781,5.89674,14.65625L5.29891,17.0625L3.36957,19.19531Q2.77174,19.90625,2.98913,20.80859L3.42391,22.558590000000002L3.45109,22.558590000000002ZM1.875,17.11719L2.55435,18.8125L1.875,17.11719L2.55435,18.8125Q2.63587,18.70312,2.74457,18.59375L3.83152,17.36328L3.45109,16.37891Q3.34239,16.13281,3.15217,15.94141L1.49457,14.246094Q1.22283,14,0.869565,14Q0.516304,14,0.244565,14.246094Q0,14.519531,0,14.875Q0,15.23047,0.244565,15.50391L1.875,17.11719Z" fill="#5DBE8A" fill-opacity="1" style="mix-blend-mode:passthrough"/></g></svg>