<svg xmlns="http://www.w3.org/2000/svg" xmlns:xlink="http://www.w3.org/1999/xlink" fill="none" version="1.1" width="10.41651725769043" height="12.25" viewBox="0 0 10.41651725769043 12.25"><g transform="matrix(1,0,0,-1,0,24.5)"><path d="M6.07752,24.5Q4.36822,24.4727,3.01163,23.6523Q1.62791,22.8594,0.813953,21.464840000000002Q0.0271318,20.09766,0,18.375Q0.0271318,16.65234,0.841085,15.28516Q1.62791,13.89062,3.01163,13.097656Q4.36822,12.2773438,6.07752,12.25Q8.60077,12.3046875,10.2829,13.97266Q10.5,14.21875,10.3643,14.49219Q10.2287,14.76562,9.9031,14.73828Q9.52326,14.65625,9.08915,14.65625Q7.0814,14.71094,5.72481,16.07812Q4.39535,17.41797,4.34109,19.46875Q4.34109,20.83594,4.99225,21.92969Q5.67054,23.023400000000002,6.75581,23.6523Q7.02713,23.8164,6.97287,24.1445Q6.89147,24.418,6.56589,24.4727Q6.32171,24.5,6.05039,24.5L6.07752,24.5Z" fill="#5DBE8A" fill-opacity="1" style="mix-blend-mode:passthrough"/></g></svg>