<svg xmlns="http://www.w3.org/2000/svg" xmlns:xlink="http://www.w3.org/1999/xlink" fill="none" version="1.1" width="10.718750953674316" height="12.25" viewBox="0 0 10.718750953674316 12.25"><g transform="matrix(1,0,0,-1,0,24.5)"><path d="M8.24519,23.351599999999998Q8.21943,23.9976,7.6268,24.3564Q7.00841,24.6436,6.39002,24.3564Q5.7974,23.9976,5.77164,23.351599999999998Q5.7974,22.7056,6.39002,22.3467Q7.00841,22.05957,7.6268,22.3467Q8.21943,22.7056,8.24519,23.351599999999998ZM3.24654,20.28906Q3.63304,20.67188,4.19989,20.67188Q4.27719,20.67188,4.35449,20.67188L3.55574,18.42285Q3.37538,17.89648,3.55574,17.41797Q3.7361,16.93945,4.22566,16.62842L6.46732,15.36035L5.7974,13.230957Q5.7201,12.919922,5.8747,12.632812Q6.0293,12.369629,6.36426,12.2739258Q6.69922,12.2021484,7.00841,12.3457031Q7.29184,12.489258,7.39491,12.800293L8.14213,15.2168Q8.24519,15.57568,8.0906,15.93457Q7.96176,16.29346,7.60104,16.48486L6.13236,17.34619L6.93111,19.30811L7.05995,19.021Q7.36914,18.375,7.96176,17.99219Q8.58015,17.60938,9.35314,17.60938L9.89423,17.60938Q10.255,17.60938,10.4869,17.82471Q10.7188,18.04004,10.7188,18.375Q10.7188,18.70996,10.4869,18.92529Q10.255,19.14062,9.89423,19.14062L9.35314,19.14062Q8.81205,19.16455,8.58015,19.61914L8.42556,19.97803Q7.80717,21.270020000000002,6.33849,21.72461L5.10171,22.0835Q4.66369,22.20312,4.19989,22.20312Q2.96312,22.1792,2.08706,21.38965L1.46867,20.83936Q1.23678,20.600099999999998,1.23678,20.28906Q1.23678,19.97803,1.46867,19.73877Q1.72634,19.52344,2.0613,19.52344Q2.39626,19.52344,2.65392,19.73877L3.24654,20.28906ZM2.34473,16.07813L0.824519,16.07813L2.34473,16.07813L0.824519,16.07813Q0.463792,16.07813,0.231896,15.86279Q0,15.64746,0,15.3125Q0,14.97754,0.231896,14.76221Q0.463792,14.54688,0.824519,14.54688L2.62816,14.54688Q3.40114,14.5708,3.76187,15.2168L4.0453,15.83887L3.8134,15.98242Q3.11771,16.38916,2.83428,17.05908L2.34473,16.07813Z" fill="#000000" fill-opacity="1" style="mix-blend-mode:passthrough"/></g></svg>