<svg xmlns="http://www.w3.org/2000/svg" xmlns:xlink="http://www.w3.org/1999/xlink" fill="none" version="1.1" width="12.2023344039917" height="10.71875" viewBox="0 0 12.2023344039917 10.71875"><g transform="matrix(1,0,0,-1,0,21.4375)"><path d="M12.2023,16.46094Q12.1785,15.07324,11.3682,13.94873Q10.5579,12.82422,9.17558,12.1543Q7.81712,11.508301,6.10117,11.484375Q4.76654,11.484375,3.62257,11.91504Q3.16975,11.580078,2.3356,11.17334Q1.42996,10.7666016,0.381323,10.71875Q0.142996,10.71875,0.0238327,10.958008Q-0.0476654,11.197266,0.119163,11.364746L0.119163,11.388672L0.142996,11.412598Q0.190661,11.460449,0.26216,11.556152Q0.428988,11.72363,0.61965,12.05859Q1.02481,12.68066,1.14397,13.56592Q0.0238327,14.81006,0,16.46094Q0.0238327,17.84863,0.834144,18.97314Q1.64446,20.097659999999998,3.02675,20.76755Q4.38521,21.41355,6.10117,21.43755Q7.81712,21.41355,9.17558,20.76755Q10.5579,20.097659999999998,11.3682,18.97314Q12.1785,17.84863,12.2023,16.46094Z" fill="#3B82F6" fill-opacity="1" style="mix-blend-mode:passthrough"/></g></svg>