<svg xmlns="http://www.w3.org/2000/svg" xmlns:xlink="http://www.w3.org/1999/xlink" fill="none" version="1.1" width="9.646874561905861" height="11.026345324455178" viewBox="0 0 9.646874561905861 11.026345324455178"><g transform="matrix(1.0499999523162842,0,0,-1.0499999523162842,0,22.604007389356)"><path d="M8.53125,21.52634532445518Q8.32617,21.546845324455177,7.71094,21.239245324455176Q7.0752,20.952125324455178,6.52148,20.17282532445518Q5.94727,19.373025324455178,5.90625,17.916965324455177L5.90625,15.620095324455178Q5.92676,15.06638532445518,6.2959,14.697245324455178Q6.66504,14.328105324455178,7.21875,14.307595324455178L7.875,14.307595324455178L7.875,11.682595324455178Q7.875,11.39548632445518,8.05957,11.21091532445518Q8.24414,11.026345324455178,8.53125,11.026345324455178Q8.81836,11.026345324455178,9.00293,11.21091532445518Q9.1875,11.39548632445518,9.1875,11.682595324455178L9.1875,14.307595324455178L9.1875,16.604465324455177L9.1875,20.87009532445518Q9.1875,21.15724532445518,9.00293,21.34174532445518Q8.81836,21.52634532445518,8.53125,21.52634532445518ZM1.3125,21.19824532445518Q1.29199,21.464845324455176,1.02539,21.52634532445518Q0.738281,21.52634532445518,0.65625,21.259745324455178L0.0410156,18.47068532445518Q0,18.286115324455178,0,18.08103532445518Q0.0205078,17.363255324455178,0.47168,16.871075324455177Q0.943359,16.358375324455178,1.64062,16.27634532445518L1.64062,11.682595324455178Q1.64062,11.39548632445518,1.8252,11.21091532445518Q2.00977,11.026345324455178,2.29688,11.026345324455178Q2.58398,11.026345324455178,2.76855,11.21091532445518Q2.95312,11.39548632445518,2.95312,11.682595324455178L2.95312,16.27634532445518Q3.65039,16.358375324455178,4.12207,16.871075324455177Q4.57324,17.363255324455178,4.59375,18.08103532445518Q4.59375,18.286115324455178,4.55273,18.47068532445518L3.9375,21.259745324455178Q3.85547,21.52634532445518,3.56836,21.52634532445518Q3.30176,21.464845324455176,3.28125,21.19824532445518L3.28125,18.450175324455177Q3.26074,18.26560532445518,3.07617,18.24509532445518Q2.91211,18.26560532445518,2.87109,18.42966532445518L2.625,21.218745324455178Q2.58398,21.50584532445518,2.29688,21.52634532445518Q2.00977,21.50584532445518,1.96875,21.218745324455178L1.72266,18.42966532445518Q1.68164,18.26560532445518,1.51758,18.24509532445518Q1.33301,18.26560532445518,1.3125,18.450175324455177L1.3125,21.19824532445518ZM2.29688,18.08103532445518L2.29688,18.101545324455177L2.29688,18.08103532445518Z" fill="#FFFFFF" fill-opacity="1" style="mix-blend-mode:passthrough"/></g></svg>