<svg xmlns="http://www.w3.org/2000/svg" xmlns:xlink="http://www.w3.org/1999/xlink" fill="none" version="1.1" width="10.71875" height="12.25" viewBox="0 0 10.71875 12.25"><g transform="matrix(1,0,0,-1,0,24.5)"><path d="M5.35938,21.82031Q5.00049,21.84424,4.97656,22.20312L4.97656,22.585900000000002Q5.00049,23.3994,5.52686,23.9497Q6.07715,24.476100000000002,6.89062,24.5L7.27344,24.5Q7.63232,24.476100000000002,7.65625,24.1172L7.65625,23.7344Q7.63232,22.9209,7.10596,22.3706Q6.55566,21.84424,5.74219,21.82031L5.35938,21.82031ZM0,17.60938Q0,19.04492,0.645996,20.21729Q1.31592,21.36572,2.67969,21.4375Q3.18213,21.4375,3.7085,21.293950000000002Q4.23486,21.15039,4.66553,20.98291Q5.35938,20.71973,6.05322,20.98291Q6.48389,21.15039,7.01025,21.293950000000002Q7.53662,21.4375,8.03906,21.4375Q9.40283,21.36572,10.0728,20.21729Q10.7188,19.04492,10.7188,17.60938Q10.6709,15.26465,9.52246,13.78125Q8.39795,12.2978516,6.89062,12.25Q6.57959,12.25,6.24463,12.3457031Q5.90967,12.441406,5.67041,12.513184Q5.35938,12.632812,5.07227,12.513184Q4.80908,12.441406,4.47412,12.3457031Q4.13916,12.25,3.82812,12.25Q2.34473,12.2978516,1.19629,13.78125Q0.0478516,15.26465,0,17.60938Z" fill="#000000" fill-opacity="1" style="mix-blend-mode:passthrough"/></g></svg>