<svg xmlns="http://www.w3.org/2000/svg" xmlns:xlink="http://www.w3.org/1999/xlink" fill="none" version="1.1" width="10.312260627746582" height="10.5" viewBox="0 0 10.312260627746582 10.5"><g transform="matrix(1,0,0,-1,0,21)"><path d="M0.650383,21Q0.227969,20.9795,0.0469349,20.5898Q-0.0938697,20.200200000000002,0.18774,19.87207L4.51245,15.4834L4.51245,11.8125L3.2251,11.8125Q2.94349,11.8125,2.76245,11.62793Q2.58142,11.443359,2.58142,11.15625Q2.58142,10.869141,2.76245,10.68457Q2.94349,10.5,3.2251,10.5L5.15613,10.5L7.08717,10.5Q7.36877,10.5,7.54981,10.68457Q7.73084,10.869141,7.73084,11.15625Q7.73084,11.443359,7.54981,11.62793Q7.36877,11.8125,7.08717,11.8125L5.79981,11.8125L5.79981,15.4834L10.1245,19.87207Q10.4061,20.200200000000002,10.2653,20.5898Q10.0843,20.9795,9.66188,21L0.650383,21ZM3.48659,18.375L2.19923,19.6875L3.48659,18.375L2.19923,19.6875L8.11303,19.6875L6.82567,18.375L3.48659,18.375Z" fill="#4B5563" fill-opacity="1" style="mix-blend-mode:passthrough"/></g></svg>