<svg xmlns="http://www.w3.org/2000/svg" xmlns:xlink="http://www.w3.org/1999/xlink" fill="none" version="1.1" width="10.287028312683105" height="10.5" viewBox="0 0 10.287028312683105 10.5"><g transform="matrix(1,0,0,-1,0,21)"><path d="M0,19.6875Q0.0204827,20.241210000000002,0.389171,20.6104Q0.757859,20.9795,1.31089,21L2.62178,21L9.62686,21Q9.95458,20.9795,10.1594,20.7334Q10.3438,20.487299999999998,10.2618,20.17969L10.1389,19.6875L6.88218,19.6875Q6.57494,19.66699,6.55446,19.35938Q6.57494,19.05176,6.88218,19.03125L9.95458,19.03125L9.58589,17.71875L6.88218,17.71875Q6.57494,17.69824,6.55446,17.39062Q6.57494,17.08301,6.88218,17.0625L9.42203,17.0625L9.05334,15.75L6.88218,15.75Q6.57494,15.72949,6.55446,15.42188Q6.57494,15.11426,6.88218,15.09375L8.88948,15.09375L8.52079,13.78125L3.27723,13.78125L3.09288,15.75L1.31089,15.75Q0.757859,15.77051,0.389171,16.13965Q0.0204827,16.50879,0,17.0625L0,19.6875ZM2.99047,17.0625L2.74468,19.6875L2.99047,17.0625L2.74468,19.6875L1.31089,19.6875L1.31089,17.0625L2.99047,17.0625ZM2.94951,13.125L8.84851,13.125L2.94951,13.125L8.84851,13.125Q9.25817,13.10449,9.54493,12.83789Q9.8112,12.55078,9.83168,12.14062L9.83168,11.484375Q9.8112,11.074219,9.54493,10.787109Q9.25817,10.5205078,8.84851,10.5L2.94951,10.5Q2.53985,10.5205078,2.25309,10.787109Q1.98682,11.074219,1.96634,11.484375L1.96634,12.14062Q1.98682,12.55078,2.25309,12.83789Q2.53985,13.10449,2.94951,13.125ZM5.89901,11.15625Q6.18577,11.15625,6.37011,11.34082Q6.55446,11.52539,6.55446,11.8125Q6.55446,12.09961,6.37011,12.28418Q6.18577,12.46875,5.89901,12.46875Q5.61225,12.46875,5.42791,12.28418Q5.24356,12.09961,5.24356,11.8125Q5.24356,11.52539,5.42791,11.34082Q5.61225,11.15625,5.89901,11.15625Z" fill="#4B5563" fill-opacity="1" style="mix-blend-mode:passthrough"/></g></svg>