<svg xmlns="http://www.w3.org/2000/svg" xmlns:xlink="http://www.w3.org/1999/xlink" fill="none" version="1.1" width="10.71875" height="12.251495361328125" viewBox="0 0 10.71875 12.251495361328125"><g transform="matrix(1,0,0,-1,0,24.50299072265625)"><path d="M9.95312,24.501495361328125Q9.71387,24.525395361328123,8.99609,24.166495361328124Q8.25439,23.831595361328127,7.6084,22.922395361328125Q6.93848,21.989285361328125,6.89062,20.290555361328124L6.89062,17.610875361328127Q6.91455,16.964875361328126,7.34521,16.534205361328127Q7.77588,16.103545361328123,8.42188,16.079615361328123L9.1875,16.079615361328123L9.1875,13.017120361328125Q9.1875,12.682159361328125,9.40283,12.466827361328125Q9.61816,12.251495361328125,9.95312,12.251495361328125Q10.2881,12.251495361328125,10.5034,12.466827361328125Q10.7188,12.682159361328125,10.7188,13.017120361328125L10.7188,16.079615361328123L10.7188,18.759305361328124L10.7188,23.735895361328126Q10.7188,24.070795361328123,10.5034,24.286195361328126Q10.2881,24.501495361328125,9.95312,24.501495361328125ZM1.53125,24.118695361328125Q1.50732,24.429695361328125,1.19629,24.501495361328125Q0.861328,24.501495361328125,0.765625,24.190495361328125L0.0478516,20.936555361328125Q0,20.721225361328123,0,20.481965361328125Q0.0239258,19.644565361328127,0.550293,19.070345361328126Q1.10059,18.472195361328126,1.91406,18.376495361328125L1.91406,13.017120361328125Q1.91406,12.682159361328125,2.12939,12.466827361328125Q2.34473,12.251495361328125,2.67969,12.251495361328125Q3.01465,12.251495361328125,3.22998,12.466827361328125Q3.44531,12.682159361328125,3.44531,13.017120361328125L3.44531,18.376495361328125Q4.25879,18.472195361328126,4.80908,19.070345361328126Q5.33545,19.644565361328127,5.35938,20.481965361328125Q5.35938,20.721225361328123,5.31152,20.936555361328125L4.59375,24.190495361328125Q4.49805,24.501495361328125,4.16309,24.501495361328125Q3.85205,24.429695361328125,3.82812,24.118695361328125L3.82812,20.912625361328125Q3.8042,20.697295361328123,3.58887,20.673375361328127Q3.39746,20.697295361328123,3.34961,20.888705361328125L3.0625,24.142595361328127Q3.01465,24.477595361328127,2.67969,24.501495361328125Q2.34473,24.477595361328127,2.29688,24.142595361328127L2.00977,20.888705361328125Q1.96191,20.697295361328123,1.77051,20.673375361328127Q1.55518,20.697295361328123,1.53125,20.912625361328125L1.53125,24.118695361328125ZM2.67969,20.481965361328125L2.67969,20.505885361328126L2.67969,20.481965361328125Z" fill="#000000" fill-opacity="1" style="mix-blend-mode:passthrough"/></g></svg>