<svg xmlns="http://www.w3.org/2000/svg" xmlns:xlink="http://www.w3.org/1999/xlink" fill="none" version="1.1" width="17.0625" height="21" viewBox="0 0 17.0625 21"><g transform="matrix(1,0,0,-1,0,42)"><path d="M13.125,40.0312Q13.084,41.1387,12.1406,41.7539Q11.1562,42.2461,10.1719,41.7539Q9.22852,41.1387,9.1875,40.0312Q9.22852,38.9238,10.1719,38.3086Q11.1562,37.8164,12.1406,38.3086Q13.084,38.9238,13.125,40.0312ZM5.16797,34.7812Q5.7832,35.4375,6.68555,35.4375Q6.80859,35.4375,6.93164,35.4375L5.66016,31.582Q5.37305,30.67969,5.66016,29.85938Q5.94727,29.03906,6.72656,28.50586L10.2949,26.33203L9.22852,22.68164Q9.10547,22.14844,9.35156,21.65625Q9.59766,21.205078,10.1309,21.0410156Q10.6641,20.9179688,11.1562,21.164062Q11.6074,21.410156,11.7715,21.943359L12.9609,26.08594Q13.125,26.70117,12.8789,27.31641Q12.6738,27.93164,12.0996,28.25977L9.76172,29.736330000000002L11.0332,33.0996L11.2383,32.6074Q11.7305,31.5,12.6738,30.84375Q13.6582,30.1875,14.8887,30.1875L15.75,30.1875Q16.3242,30.1875,16.6934,30.55664Q17.0625,30.92578,17.0625,31.5Q17.0625,32.0742,16.6934,32.4434Q16.3242,32.8125,15.75,32.8125L14.8887,32.8125Q14.0273,32.8535,13.6582,33.6328L13.4121,34.248Q12.4277,36.4629,10.0898,37.2422L8.12109,37.8574Q7.42383,38.0625,6.68555,38.0625Q4.7168,38.0215,3.32227,36.668L2.33789,35.7246Q1.96875,35.3145,1.96875,34.7812Q1.96875,34.248,2.33789,33.8379Q2.74805,33.4688,3.28125,33.4688Q3.81445,33.4688,4.22461,33.8379L5.16797,34.7812ZM3.73242,27.5625L1.3125,27.5625L3.73242,27.5625L1.3125,27.5625Q0.738281,27.5625,0.369141,27.19336Q0,26.82422,0,26.25Q0,25.67578,0.369141,25.30664Q0.738281,24.9375,1.3125,24.9375L4.18359,24.9375Q5.41406,24.97852,5.98828,26.08594L6.43945,27.15234L6.07031,27.39844Q4.96289,28.0957,4.51172,29.24414L3.73242,27.5625Z" fill="#5DBE8A" fill-opacity="1" style="mix-blend-mode:passthrough"/></g></svg>