<svg xmlns="http://www.w3.org/2000/svg" xmlns:xlink="http://www.w3.org/1999/xlink" fill="none" version="1.1" width="21.875" height="15.3125" viewBox="0 0 21.875 15.3125"><g transform="matrix(1,0,0,-1,0,30.625)"><path d="M1.09375,30.625Q1.57227,30.625,1.87988,30.3174Q2.1875,30.0098,2.1875,29.5313L2.1875,20.78125L9.84375,20.78125L9.84375,26.25Q9.84375,26.7285,10.1514,27.036099999999998Q10.459,27.3437,10.9375,27.3437L18.5938,27.3437Q19.9951,27.3096,20.918,26.386699999999998Q21.8408,25.463900000000002,21.875,24.0625L21.875,16.40625Q21.875,15.927734,21.5674,15.620117Q21.2598,15.3125,20.7812,15.3125Q20.3027,15.3125,19.9951,15.620117Q19.6875,15.927734,19.6875,16.40625L19.6875,17.5L12.0312,17.5L2.1875,17.5L2.1875,16.40625Q2.1875,15.927734,1.87988,15.620117Q1.57227,15.3125,1.09375,15.3125Q0.615234,15.3125,0.307617,15.620117Q0,15.927734,0,16.40625L0,29.5313Q0,30.0098,0.307617,30.3174Q0.615234,30.625,1.09375,30.625ZM6.01562,27.3437Q7.55371,27.3096,8.37402,25.976599999999998Q9.12598,24.60938,8.37402,23.24219Q7.55371,21.90918,6.01562,21.875Q4.47754,21.90918,3.65723,23.24219Q2.90527,24.60938,3.65723,25.976599999999998Q4.47754,27.3096,6.01562,27.3437Z" fill="#9CA3AF" fill-opacity="1" style="mix-blend-mode:passthrough"/></g></svg>