<svg xmlns="http://www.w3.org/2000/svg" xmlns:xlink="http://www.w3.org/1999/xlink" fill="none" version="1.1" width="17.5" height="17.5" viewBox="0 0 17.5 17.5"><defs><clipPath id="master_svg0_42_04836"><rect x="0" y="0" width="17.5" height="17.5" rx="0"/></clipPath></defs><g clip-path="url(#master_svg0_42_04836)"><g transform="matrix(1,0,0,-1,0,35.751953125)"><g><path d="M8.75,17.8759765625Q11.1426,17.9101562625,13.125,19.0380865625Q15.1074,20.2001965625,16.3379,22.2509765625Q17.5,24.3359365625,17.5,26.6259765625Q17.5,28.9159765625,16.3379,31.0009765625Q15.1074,33.0517765625,13.125,34.213876562500005Q11.1426,35.3417765625,8.75,35.3759765625Q6.35742,35.3417765625,4.375,34.213876562500005Q2.39258,33.0517765625,1.16211,31.0009765625Q0,28.9159765625,0,26.6259765625Q0,24.3359365625,1.16211,22.2509765625Q2.39258,20.2001965625,4.375,19.0380865625Q6.35742,17.9101562625,8.75,17.8759765625ZM6.01562,29.3603765625Q6.49414,29.3603765625,6.80176,29.0527765625Q7.10938,28.7450765625,7.10938,28.2665765625Q7.10938,27.7880865625,6.80176,27.4804665625Q6.49414,27.1728565625,6.01562,27.1728565625Q5.57129,27.1728565625,5.26367,27.4804665625Q4.95605,27.7880865625,4.92188,28.2665765625Q4.95605,28.7450765625,5.26367,29.0527765625Q5.57129,29.3603765625,6.01562,29.3603765625ZM10.3906,28.2665765625Q10.4248,28.7450765625,10.7324,29.0527765625Q11.04,29.3603765625,11.4844,29.3603765625Q11.9629,29.3603765625,12.2705,29.0527765625Q12.5781,28.7450765625,12.5781,28.2665765625Q12.5781,27.7880865625,12.2705,27.4804665625Q11.9629,27.1728565625,11.4844,27.1728565625Q11.04,27.1728565625,10.7324,27.4804665625Q10.4248,27.7880865625,10.3906,28.2665765625ZM5.46875,23.8915965625L12.0312,23.8915965625L5.46875,23.8915965625L12.0312,23.8915965625Q12.5439,23.8574265625,12.5781,23.3447265625Q12.5439,22.8320265625,12.0312,22.7978565625L5.46875,22.7978565625Q4.95605,22.8320265625,4.92188,23.3447265625Q4.95605,23.8574265625,5.46875,23.8915965625Z" fill="#9CA3AF" fill-opacity="1" style="mix-blend-mode:passthrough"/></g></g></g></svg>