<svg xmlns="http://www.w3.org/2000/svg" xmlns:xlink="http://www.w3.org/1999/xlink" fill="none" version="1.1" width="26.25" height="18.375" viewBox="0 0 26.25 18.375"><g transform="matrix(1,0,0,-1,0,36.75)"><path d="M3.9375,35.4375Q3.9375,36.011700000000005,4.30664,36.3809Q4.67578,36.75,5.25,36.75L6.5625,36.75Q7.13672,36.75,7.50586,36.3809Q7.875,36.011700000000005,7.875,35.4375L7.875,28.875L7.875,26.25L7.875,19.6875Q7.875,19.113281,7.50586,18.744141Q7.13672,18.375,6.5625,18.375L5.25,18.375Q4.67578,18.375,4.30664,18.744141Q3.9375,19.113281,3.9375,19.6875L3.9375,22.3125L2.625,22.3125Q2.05078,22.3125,1.68164,22.68164Q1.3125,23.05078,1.3125,23.625L1.3125,26.25Q0.738281,26.25,0.369141,26.61914Q0,26.98828,0,27.5625Q0,28.13672,0.369141,28.5059Q0.738281,28.875,1.3125,28.875L1.3125,31.5Q1.3125,32.0742,1.68164,32.4434Q2.05078,32.8125,2.625,32.8125L3.9375,32.8125L3.9375,35.4375ZM22.3125,35.4375L22.3125,32.8125L22.3125,35.4375L22.3125,32.8125L23.625,32.8125Q24.1992,32.8125,24.5684,32.4434Q24.9375,32.0742,24.9375,31.5L24.9375,28.875Q25.5117,28.875,25.8809,28.5059Q26.25,28.13672,26.25,27.5625Q26.25,26.98828,25.8809,26.61914Q25.5117,26.25,24.9375,26.25L24.9375,23.625Q24.9375,23.05078,24.5684,22.68164Q24.1992,22.3125,23.625,22.3125L22.3125,22.3125L22.3125,19.6875Q22.3125,19.113281,21.9434,18.744141Q21.5742,18.375,21,18.375L19.6875,18.375Q19.1133,18.375,18.7441,18.744141Q18.375,19.113281,18.375,19.6875L18.375,26.25L18.375,28.875L18.375,35.4375Q18.375,36.011700000000005,18.7441,36.3809Q19.1133,36.75,19.6875,36.75L21,36.75Q21.5742,36.75,21.9434,36.3809Q22.3125,36.011700000000005,22.3125,35.4375ZM17.0625,28.875L17.0625,26.25L17.0625,28.875L17.0625,26.25L9.1875,26.25L9.1875,28.875L17.0625,28.875Z" fill="#0091FF" fill-opacity="1" style="mix-blend-mode:passthrough"/></g></svg>