<svg xmlns="http://www.w3.org/2000/svg" xmlns:xlink="http://www.w3.org/1999/xlink" fill="none" version="1.1" width="21" height="28" viewBox="0 0 21 28"><defs><clipPath id="master_svg0_42_03814"><rect x="0" y="3.5" width="21" height="21" rx="0"/></clipPath></defs><g><rect x="0" y="0" width="21" height="28" rx="0" fill="#000000" fill-opacity="0" style="mix-blend-mode:passthrough"/><g clip-path="url(#master_svg0_42_03814)"><g transform="matrix(1,0,0,-1,0,49.91199493408203)"><g><path d="M14.366276217126845,45.71469746704102Q14.040676217126846,45.34559746704102,13.674376217126847,44.64829746704102Q13.308076217126846,43.951097467041016,13.267376217126847,43.00769746704101Q13.267376217126847,41.81819746704102,13.715076217126846,41.120997467041015Q14.122076217126846,40.423697467041016,14.895376217126847,39.726497467041014Q15.587176217126846,38.947197467041015,16.279076217126846,38.53699746704102Q16.970876217126847,38.08579746704102,18.151176217126846,38.08579746704102Q19.087176217126846,38.126797467041015,19.779076217126846,38.495997467041015Q20.470876217126847,38.86509746704102,20.837176217126846,39.19319746704102Q21.081376217126845,39.39829746704102,21.081376217126845,39.726497467041014Q21.081376217126845,40.05459746704101,20.837176217126846,40.259697467041015Q20.470876217126847,40.587797467041014,19.697676217126848,40.95689746704102Q18.924376217126845,41.326097467041016,17.825576217126848,41.36709746704102Q16.889476217126845,41.326097467041016,16.523276217126845,41.202997467041016Q16.197676217126848,41.038997467041014,16.197676217126848,41.038997467041014Q16.23837621712685,40.997897467041014,16.360476217126845,41.36709746704102Q16.523276217126845,41.69519746704101,16.523276217126845,42.67959746704102Q16.482576217126848,43.78699746704102,16.116276217126845,44.56629746704101Q15.749976217126846,45.34559746704102,15.424376217126847,45.71469746704102Q15.220876217126847,45.96079746704102,14.895376217126847,45.96079746704102Q14.569776217126845,45.96079746704102,14.366276217126845,45.71469746704102ZM10.215096217126847,40.38269746704101Q7.651136217126846,40.30069746704102,6.063936217126846,38.413997467041014L8.505786217126847,35.91199746704102Q8.912766217126846,35.46079746704102,8.505786217126847,35.009697467041015Q8.058116217126846,34.59949746704102,7.610446217126846,35.009697467041015L5.372076217126846,37.265497467041016L0.32555951712684633,26.355357467041017Q0.08137321712684631,25.740119467041016,0.5290482171268462,25.247932467041014Q1.0174202171268463,24.796760467041015,1.6278862171268462,25.042854067041016L7.122076217126846,27.626837467041014L5.005796217126846,29.759647467041017Q4.5988162171268465,30.210827467041014,5.005796217126846,30.661997467041015Q5.453466217126846,31.072147467041017,5.901136217126846,30.661997467041015L8.383696217126847,28.201057467041014L12.453476217126846,30.087777467041015Q13.877876217126847,30.785037467041015,14.691876217126847,32.097537467041015Q15.546476217126846,33.410037467041015,15.546476217126846,35.009697467041015Q15.505776217126847,37.265497467041016,13.999976217126846,38.824097467041014Q12.453476217126846,40.341697467041016,10.215096217126847,40.38269746704101Z" fill="#F28D9D" fill-opacity="1" style="mix-blend-mode:passthrough"/></g></g></g></g></svg>