<svg xmlns="http://www.w3.org/2000/svg" xmlns:xlink="http://www.w3.org/1999/xlink" fill="none" version="1.1" width="18.375" height="21.0025634765625" viewBox="0 0 18.375 21.0025634765625"><g transform="matrix(1,0,0,-1,0,42.005126953125)"><path d="M17.0625,42.0025634765625Q16.6523,42.0435634765625,15.4219,41.428363476562495Q14.1504,40.854163476562505,13.043,39.2955634765625Q11.8945,37.6959634765625,11.8125,34.7837634765625L11.8125,30.1900634765625Q11.8535,29.082643476562502,12.5918,28.3443634765625Q13.3301,27.6060834765625,14.4375,27.5650634765625L15.75,27.5650634765625L15.75,22.3150634765625Q15.75,21.7408444765625,16.1191,21.3717044765625Q16.4883,21.0025634765625,17.0625,21.0025634765625Q17.6367,21.0025634765625,18.0059,21.3717044765625Q18.375,21.7408444765625,18.375,22.3150634765625L18.375,27.5650634765625L18.375,32.1587634765625L18.375,40.6900634765625Q18.375,41.264263476562505,18.0059,41.6334634765625Q17.6367,42.0025634765625,17.0625,42.0025634765625ZM2.625,41.3463634765625Q2.58398,41.879563476562495,2.05078,42.0025634765625Q1.47656,42.0025634765625,1.3125,41.4693634765625L0.0820312,35.8912634765625Q0,35.5220634765625,0,35.1119634765625Q0.0410156,33.6763634765625,0.943359,32.6920634765625Q1.88672,31.666663476562498,3.28125,31.5025634765625L3.28125,22.3150634765625Q3.28125,21.7408444765625,3.65039,21.3717044765625Q4.01953,21.0025634765625,4.59375,21.0025634765625Q5.16797,21.0025634765625,5.53711,21.3717044765625Q5.90625,21.7408444765625,5.90625,22.3150634765625L5.90625,31.5025634765625Q7.30078,31.666663476562498,8.24414,32.6920634765625Q9.14648,33.6763634765625,9.1875,35.1119634765625Q9.1875,35.5220634765625,9.10547,35.8912634765625L7.875,41.4693634765625Q7.71094,42.0025634765625,7.13672,42.0025634765625Q6.60352,41.879563476562495,6.5625,41.3463634765625L6.5625,35.8502634765625Q6.52148,35.4810634765625,6.15234,35.4400634765625Q5.82422,35.4810634765625,5.74219,35.8091634765625L5.25,41.3873634765625Q5.16797,41.9615634765625,4.59375,42.0025634765625Q4.01953,41.9615634765625,3.9375,41.3873634765625L3.44531,35.8091634765625Q3.36328,35.4810634765625,3.03516,35.4400634765625Q2.66602,35.4810634765625,2.625,35.8502634765625L2.625,41.3463634765625ZM4.59375,35.1119634765625L4.59375,35.1529634765625L4.59375,35.1119634765625Z" fill="#FDC60F" fill-opacity="1" style="mix-blend-mode:passthrough"/></g></svg>