<svg xmlns="http://www.w3.org/2000/svg" xmlns:xlink="http://www.w3.org/1999/xlink" fill="none" version="1.1" width="18.375" height="28" viewBox="0 0 18.375 28"><defs><clipPath id="master_svg0_42_03781"><rect x="0" y="3.5" width="18.375" height="21" rx="0"/></clipPath></defs><g><rect x="0" y="0" width="18.375" height="28" rx="0" fill="#000000" fill-opacity="0" style="mix-blend-mode:passthrough"/><g clip-path="url(#master_svg0_42_03781)"><g transform="matrix(1,0,0,-1,0,49.90234375)"><g><path d="M5.25,45.951171875Q5.82422,45.951171875,6.19336,45.582071875Q6.5625,45.212871875000005,6.5625,44.638671875L6.5625,43.326171875L11.8125,43.326171875L11.8125,44.638671875Q11.8125,45.212871875000005,12.1816,45.582071875Q12.5508,45.951171875,13.125,45.951171875Q13.6992,45.951171875,14.0684,45.582071875Q14.4375,45.212871875000005,14.4375,44.638671875L14.4375,43.326171875L16.4062,43.326171875Q17.2266,43.285171875,17.8008,42.751971874999995Q18.334,42.177771875000005,18.375,41.357371875L18.375,39.388671875L0,39.388671875L0,41.357371875Q0.0410156,42.177771875000005,0.574219,42.751971874999995Q1.14844,43.285171875,1.96875,43.326171875L3.9375,43.326171875L3.9375,44.638671875Q3.9375,45.212871875000005,4.30664,45.582071875Q4.67578,45.951171875,5.25,45.951171875ZM0,38.076171875L18.375,38.076171875L0,38.076171875L18.375,38.076171875L18.375,26.919921875Q18.334,26.099611875,17.8008,25.525390875Q17.2266,24.992187475,16.4062,24.951171875L1.96875,24.951171875Q1.14844,24.992187475,0.574219,25.525390875Q0.0410156,26.099611875,0,26.919921875L0,38.076171875ZM2.625,34.794921875L2.625,33.482421875L2.625,34.794921875L2.625,33.482421875Q2.66602,32.867191875,3.28125,32.826171875L4.59375,32.826171875Q5.20898,32.867191875,5.25,33.482421875L5.25,34.794921875Q5.20898,35.410171875,4.59375,35.451171875L3.28125,35.451171875Q2.66602,35.410171875,2.625,34.794921875ZM7.875,34.794921875L7.875,33.482421875L7.875,34.794921875L7.875,33.482421875Q7.91602,32.867191875,8.53125,32.826171875L9.84375,32.826171875Q10.459,32.867191875,10.5,33.482421875L10.5,34.794921875Q10.459,35.410171875,9.84375,35.451171875L8.53125,35.451171875Q7.91602,35.410171875,7.875,34.794921875ZM13.7812,35.451171875Q13.166,35.410171875,13.125,34.794921875L13.125,33.482421875Q13.166,32.867191875,13.7812,32.826171875L15.0938,32.826171875Q15.709,32.867191875,15.75,33.482421875L15.75,34.794921875Q15.709,35.410171875,15.0938,35.451171875L13.7812,35.451171875ZM2.625,29.544921875L2.625,28.232421875L2.625,29.544921875L2.625,28.232421875Q2.66602,27.617191875,3.28125,27.576171875L4.59375,27.576171875Q5.20898,27.617191875,5.25,28.232421875L5.25,29.544921875Q5.20898,30.160151875,4.59375,30.201171875L3.28125,30.201171875Q2.66602,30.160151875,2.625,29.544921875ZM8.53125,30.201171875Q7.91602,30.160151875,7.875,29.544921875L7.875,28.232421875Q7.91602,27.617191875,8.53125,27.576171875L9.84375,27.576171875Q10.459,27.617191875,10.5,28.232421875L10.5,29.544921875Q10.459,30.160151875,9.84375,30.201171875L8.53125,30.201171875ZM13.125,29.544921875L13.125,28.232421875L13.125,29.544921875L13.125,28.232421875Q13.166,27.617191875,13.7812,27.576171875L15.0938,27.576171875Q15.709,27.617191875,15.75,28.232421875L15.75,29.544921875Q15.709,30.160151875,15.0938,30.201171875L13.7812,30.201171875Q13.166,30.160151875,13.125,29.544921875Z" fill="#9C27B0" fill-opacity="1" style="mix-blend-mode:passthrough"/></g></g></g></g></svg>