<svg xmlns="http://www.w3.org/2000/svg" xmlns:xlink="http://www.w3.org/1999/xlink" fill="none" version="1.1" width="13.020647048950195" height="15.312500953674316" viewBox="0 0 13.020647048950195 15.312500953674316"><g transform="matrix(1,0,0,-1,0,30.625001907348633)"><path d="M7.5969,30.625000953674316Q5.46027,30.590800953674318,3.76453,29.565400953674317Q2.03488,28.574200953674314,1.01744,26.831100953674316Q0.0339147,25.122070953674317,0,22.968750953674316Q0.0339147,20.815430953674316,1.05136,19.106450953674315Q2.03488,17.363280953674316,3.76453,16.372070953674317Q5.46027,15.346680653674316,7.5969,15.312500953674316Q10.751,15.380860353674317,12.8537,17.465820953674317Q13.125,17.773440953674317,12.9554,18.115230953674317Q12.7859,18.457030953674316,12.3789,18.422850953674317Q11.9041,18.320310953674316,11.3614,18.320310953674316Q8.85174,18.388670953674318,7.15601,20.097660953674318Q5.49419,21.772460953674315,5.42636,24.335940953674317Q5.42636,26.044900953674315,6.24031,27.41210095367432Q7.08818,28.779300953674316,8.44477,29.565400953674317Q8.78392,29.770500953674315,8.71609,30.180700953674318Q8.61434,30.522500953674317,8.20737,30.590800953674318Q7.90213,30.625000953674316,7.56298,30.625000953674316L7.5969,30.625000953674316Z" fill="#9CA3AF" fill-opacity="1" style="mix-blend-mode:passthrough"/></g></svg>