<svg xmlns="http://www.w3.org/2000/svg" xmlns:xlink="http://www.w3.org/1999/xlink" fill="none" version="1.1" width="17.5" height="17.5" viewBox="0 0 17.5 17.5"><g transform="matrix(1,0,0,-1,0,35)"><path d="M8.75,17.5Q11.1426,17.5341797,13.125,18.66211Q15.1074,19.82422,16.3379,21.875Q17.5,23.95996,17.5,26.25Q17.5,28.54,16.3379,30.625Q15.1074,32.6758,13.125,33.837900000000005Q11.1426,34.9658,8.75,35Q6.35742,34.9658,4.375,33.837900000000005Q2.39258,32.6758,1.16211,30.625Q0,28.54,0,26.25Q0,23.95996,1.16211,21.875Q2.39258,19.82422,4.375,18.66211Q6.35742,17.5341797,8.75,17.5ZM5.60547,23.85742Q6.08398,23.31055,6.83594,22.86621Q7.62207,22.45605,8.75,22.42188Q9.87793,22.45605,10.6641,22.86621Q11.416,23.31055,11.8945,23.85742Q12.2705,24.2334,12.6807,23.92578Q13.0225,23.5498,12.7148,23.13965Q12.1338,22.45605,11.1426,21.90918Q10.1514,21.3623,8.75,21.32812Q7.34863,21.3623,6.35742,21.90918Q5.36621,22.45605,4.78516,23.13965Q4.47754,23.5498,4.85352,23.92578Q5.22949,24.2334,5.60547,23.85742ZM4.92188,27.8906Q4.95605,28.3691,5.26367,28.6768Q5.57129,28.9844,6.01562,28.9844Q6.49414,28.9844,6.80176,28.6768Q7.10938,28.3691,7.10938,27.8906Q7.10938,27.41211,6.80176,27.10449Q6.49414,26.79688,6.01562,26.79688Q5.57129,26.79688,5.26367,27.10449Q4.95605,27.41211,4.92188,27.8906ZM11.4844,28.9844Q11.9629,28.9844,12.2705,28.6768Q12.5781,28.3691,12.5781,27.8906Q12.5781,27.41211,12.2705,27.10449Q11.9629,26.79688,11.4844,26.79688Q11.04,26.79688,10.7324,27.10449Q10.4248,27.41211,10.3906,27.8906Q10.4248,28.3691,10.7324,28.6768Q11.04,28.9844,11.4844,28.9844Z" fill="#9CA3AF" fill-opacity="1" style="mix-blend-mode:passthrough"/></g></svg>