<svg xmlns="http://www.w3.org/2000/svg" xmlns:xlink="http://www.w3.org/1999/xlink" fill="none" version="1.1" width="17.5" height="17.5" viewBox="0 0 17.5 17.5"><g transform="matrix(1,0,0,-1,0,35)"><path d="M8.75,35Q11.1426,34.9658,13.125,33.837900000000005Q15.1074,32.6758,16.3379,30.625Q17.5,28.54,17.5,26.25Q17.5,23.95996,16.3379,21.875Q15.1074,19.82422,13.125,18.66211Q11.1426,17.5341797,8.75,17.5Q6.35742,17.5341797,4.375,18.66211Q2.39258,19.82422,1.16211,21.875Q0,23.95996,0,26.25Q0,28.54,1.16211,30.625Q2.39258,32.6758,4.375,33.837900000000005Q6.35742,34.9658,8.75,35ZM7.92969,30.898400000000002L7.92969,26.25L7.92969,30.898400000000002L7.92969,26.25Q7.92969,25.80566,8.30566,25.566409999999998L11.5869,23.37891Q12.2363,23.00293,12.7148,23.61816Q13.0908,24.26758,12.4756,24.74609L9.57031,26.69434L9.57031,30.898400000000002Q9.50195,31.650399999999998,8.75,31.7188Q7.99805,31.650399999999998,7.92969,30.898400000000002Z" fill="#9CA3AF" fill-opacity="1" style="mix-blend-mode:passthrough"/></g></svg>