<svg xmlns="http://www.w3.org/2000/svg" xmlns:xlink="http://www.w3.org/1999/xlink" fill="none" version="1.1" width="14" height="14" viewBox="0 0 14 14"><g transform="matrix(1,0,0,-1,0,28)"><path d="M2.05078,25.949199999999998L1.12109,26.8789L2.05078,25.949199999999998L1.12109,26.8789Q0.792969,27.1797,0.410156,27.0156Q0.0273438,26.8789,0,26.414099999999998L0,23.40625Q0.0546875,22.80469,0.65625,22.75L3.66406,22.75Q4.12891,22.777340000000002,4.26562,23.160159999999998Q4.42969,23.54297,4.12891,23.871090000000002L3.28125,24.7188Q4.75781,26.1953,7,26.25Q9.24219,26.1953,10.7188,24.7188Q12.1953,23.24219,12.25,21Q12.1953,18.75781,10.7188,17.28125Q9.24219,15.80469,7,15.75Q5.30469,15.77734,3.99219,16.67969Q3.69141,16.89844,3.33594,16.84375Q3.00781,16.76172,2.78906,16.46094Q2.57031,16.16016,2.625,15.83203Q2.70703,15.47656,3.00781,15.25781Q4.73047,14.0273438,7,14Q8.96875,14.0273438,10.5273,14.957031Q12.1133,15.88672,13.043,17.47266Q13.9727,19.03125,14,21Q13.9727,22.96875,13.043,24.5273Q12.1133,26.113300000000002,10.5273,27.043Q8.96875,27.9727,7,28Q5.55078,28,4.26562,27.4531Q3.00781,26.9062,2.05078,25.949199999999998ZM7,24.5Q6.39844,24.4453,6.34375,23.84375L6.34375,21Q6.34375,20.72656,6.53516,20.53516L8.50391,18.56641Q8.96875,18.18359,9.43359,18.56641Q9.81641,19.03125,9.43359,19.49609L7.65625,21.27344L7.65625,23.84375Q7.60156,24.4453,7,24.5Z" fill="#4B5563" fill-opacity="1" style="mix-blend-mode:passthrough"/></g></svg>